<svg width="70" height="50" viewBox="0 0 70 50" fill="none" xmlns="http://www.w3.org/2000/svg">
<rect width="70" height="50" rx="4" fill="#0060AF"/>
<path fill-rule="evenodd" clip-rule="evenodd" d="M14.3972 29.7912C14.3972 29.1202 14.4049 27.3265 14.3873 27.1055C14.4026 24.4365 12.344 22.5538 11.0435 22.7005C10.1436 22.7742 9.38921 23.1201 8.98441 24.1152C8.60892 25.0426 8.94464 26.2762 10.1925 26.5656C11.5267 26.8765 12.306 27.1351 12.8699 27.5C13.5608 27.9467 14.1249 28.8002 14.1399 29.7923" fill="white"/>
<path fill-rule="evenodd" clip-rule="evenodd" d="M13.8396 29.7922C13.8439 28.9321 13.3346 28.1715 12.669 27.7627C12.0785 27.4015 11.2858 27.1642 10.007 26.8584C9.61173 26.7631 9.19824 26.5513 9.07023 26.2814C8.73161 26.6031 8.6701 27.3262 8.72968 27.7489C8.79892 28.2378 9.40515 29.0438 10.318 29.0754C10.8754 29.0965 11.5802 28.9623 11.9181 28.8946C12.5012 28.7759 13.4236 29.1201 13.5705 29.7912" fill="white"/>
<path fill-rule="evenodd" clip-rule="evenodd" d="M14.8687 18.5408C13.3209 18.5408 11.9841 19.503 11.9888 21.1679C11.9936 22.568 13.188 23.3175 13.6144 23.8529C14.2585 24.6596 14.6071 25.6145 14.6431 27.0756C14.6715 28.2384 14.67 29.3867 14.6763 29.7936H15.0178C15.012 29.3679 14.9966 28.1489 15.0141 27.0396C15.0373 25.5781 15.3985 24.6596 16.0429 23.8529C16.4729 23.3175 17.6662 22.568 17.6688 21.1679C17.6748 19.503 16.3385 18.5408 14.7922 18.5408" fill="white"/>
<path fill-rule="evenodd" clip-rule="evenodd" d="M15.2615 29.7912C15.2615 29.1202 15.2535 27.3265 15.2707 27.1055C15.2556 24.4365 17.3129 22.5538 18.6145 22.7005C19.5145 22.7742 20.2679 23.1201 20.6739 24.1152C21.049 25.0426 20.7115 26.2762 19.4652 26.5656C18.13 26.8765 17.3518 27.1351 16.7865 27.5C16.0964 27.9467 15.5718 28.8002 15.5557 29.7923" fill="white"/>
<path fill-rule="evenodd" clip-rule="evenodd" d="M15.8188 29.7922C15.8139 28.9321 16.3231 28.1715 16.9868 27.7627C17.5798 27.4015 18.3733 27.1642 19.651 26.8584C20.0471 26.7631 20.4601 26.5513 20.5858 26.2814C20.9261 26.6031 20.9876 27.3262 20.9278 27.7489C20.8573 28.2378 20.2525 29.0438 19.3413 29.0754C18.7842 29.0965 18.0756 28.9623 17.739 28.8946C17.1583 28.7759 16.2332 29.1201 16.0857 29.7912" fill="white"/>
<path fill-rule="evenodd" clip-rule="evenodd" d="M16.2962 32.5691L16.0983 31.2069L16.5763 31.1386C16.6926 31.1237 16.8343 31.1428 16.891 31.2114C16.9536 31.2832 16.9727 31.3426 16.9848 31.4367C17.003 31.5532 16.9673 31.6877 16.8282 31.7548V31.7589C16.9834 31.7589 17.0772 31.8641 17.1046 32.0417C17.1085 32.0793 17.1204 32.1698 17.1085 32.2454C17.0769 32.4253 16.9632 32.4832 16.771 32.5086L16.2962 32.5691ZM16.6039 32.3254C16.6605 32.3176 16.718 32.3148 16.7629 32.2877C16.8319 32.2454 16.8256 32.1549 16.8159 32.0875C16.7921 31.9398 16.7512 31.8835 16.5849 31.9068L16.4802 31.9219L16.5465 32.3328L16.6039 32.3254ZM16.5039 31.6958C16.5671 31.6862 16.6528 31.6789 16.6886 31.6223C16.7074 31.5845 16.7312 31.5545 16.7154 31.4704C16.696 31.3708 16.661 31.3089 16.5266 31.3329L16.4015 31.3518L16.4509 31.7009L16.5039 31.6958Z" fill="white"/>
<path fill-rule="evenodd" clip-rule="evenodd" d="M18.367 31.7499C18.3707 31.7752 18.3751 31.8035 18.3767 31.8288C18.4154 32.0771 18.367 32.283 18.0708 32.3396C17.6326 32.419 17.5488 32.1626 17.4718 31.8035L17.4307 31.609C17.3704 31.2655 17.3444 31.0054 17.7714 30.9251C18.0122 30.8838 18.1712 30.9741 18.2374 31.2C18.2477 31.2337 18.2606 31.2669 18.2654 31.3009L18.0035 31.3519C17.9732 31.2669 17.9331 31.1153 17.8152 31.128C17.6037 31.1522 17.6735 31.4002 17.6953 31.504L17.774 31.8769C17.7977 31.9897 17.8447 32.1699 18.0278 32.1351C18.1764 32.107 18.1115 31.8888 18.0983 31.7992" fill="white"/>
<path fill-rule="evenodd" clip-rule="evenodd" d="M18.7874 32.1621L18.6969 30.7523L19.0487 30.6511L19.7867 31.8772L19.5096 31.9554L19.3347 31.6438L19.027 31.7309L19.0668 32.0852L18.7874 32.1621ZM19.0012 31.5032L19.2236 31.4425L18.9283 30.8721L19.0012 31.5032Z" fill="white"/>
<path fill-rule="evenodd" clip-rule="evenodd" d="M10.0938 31.0962C10.2039 30.7639 10.3025 30.5191 10.7229 30.6278C10.9478 30.6871 11.0873 30.7805 11.0807 31.0268C11.0796 31.0816 11.0604 31.1376 11.0478 31.1917L10.7862 31.1237C10.8205 30.9875 10.8422 30.8796 10.6645 30.828C10.459 30.7749 10.4089 31.0098 10.3806 31.1112L10.2741 31.4807C10.2403 31.5904 10.1998 31.7718 10.3806 31.8187C10.53 31.8565 10.6205 31.7184 10.6746 31.5165L10.4917 31.4707L10.555 31.2569L10.9854 31.3873L10.781 32.0997L10.583 32.049L10.6276 31.8984H10.6219C10.5306 32.0216 10.4195 32.0345 10.3221 32.0168C9.89173 31.9072 9.93665 31.642 10.0394 31.2878" fill="white"/>
<path fill-rule="evenodd" clip-rule="evenodd" d="M11.6958 31.6979L11.5662 32.2774L11.2744 32.218L11.5853 30.8649L12.0827 30.9707C12.3738 31.03 12.4618 31.152 12.4205 31.4037C12.397 31.5481 12.3215 31.7035 12.1371 31.6909L12.1352 31.6886C12.2911 31.7399 12.3043 31.8141 12.2771 31.9421C12.2653 31.9967 12.1843 32.3273 12.2402 32.3808L12.2421 32.4214L11.9402 32.3471C11.9277 32.2555 11.9705 32.0907 11.9874 31.9993C12.0043 31.9186 12.0315 31.8047 11.9446 31.7621C11.8766 31.7278 11.8512 31.7294 11.7742 31.7129L11.6958 31.6979ZM11.7455 31.4883L11.942 31.5382C12.0613 31.5546 12.1276 31.4963 12.1512 31.3603C12.1724 31.2357 12.1449 31.1871 12.0378 31.163L11.8272 31.1226L11.7455 31.4883Z" fill="white"/>
<path fill-rule="evenodd" clip-rule="evenodd" d="M13.5672 31.167L13.8557 31.1986L13.7314 32.15C13.6711 32.4516 13.5474 32.5834 13.1954 32.5422C12.8373 32.4994 12.7523 32.3458 12.7739 32.0418L12.8991 31.0913L13.1899 31.1226L13.0652 32.0518C13.0518 32.1527 13.0272 32.3023 13.2175 32.3205C13.3864 32.3326 13.4247 32.227 13.4439 32.0958" fill="white"/>
<path fill-rule="evenodd" clip-rule="evenodd" d="M14.1738 32.5942L14.2608 31.2339L14.815 31.2565C15.0771 31.2688 15.1456 31.4704 15.1375 31.6628C15.1298 31.7799 15.0911 31.9106 14.9829 31.9814C14.8942 32.0417 14.7801 32.056 14.6744 32.0511L14.4938 32.0417L14.4577 32.6118L14.1738 32.5942ZM14.5018 31.8342L14.6487 31.842C14.768 31.8461 14.847 31.8016 14.8573 31.6364C14.8633 31.478 14.7995 31.451 14.645 31.4446L14.5287 31.4408L14.5018 31.8342Z" fill="white"/>
<path fill-rule="evenodd" clip-rule="evenodd" d="M53.2739 19.8555L51.0705 23.6256C50.2389 22.9889 49.2235 22.5204 47.9278 22.5204C44.8615 22.5204 43.6159 24.6749 43.6159 26.1926C43.6159 27.3193 44.3985 28.9814 47.1267 28.9814C48.272 28.9814 49.8999 28.2305 50.3685 27.8887L48.1894 32.2625C47.1507 32.4579 46.8094 32.579 45.9302 32.6046C41.0469 32.742 39.0738 29.9141 39.0751 27.0247C39.0785 23.2047 42.681 18.5591 48.6537 18.5591C49.0195 18.5591 49.4671 18.6786 49.8498 18.8108L50.2368 18.3444" fill="white"/>
<path fill-rule="evenodd" clip-rule="evenodd" d="M62.3653 18.4627L62.9893 32.1646H58.3459L58.3433 29.8148H55.1769L54.135 32.1646H49.099L54.3639 22.3803L53.1768 22.373L55.4323 18.4627H62.3653ZM58.313 22.6544L56.523 26.6399H58.3671L58.313 22.6544Z" fill="white"/>
<path fill-rule="evenodd" clip-rule="evenodd" d="M36.1436 18.4627C38.443 18.4749 39.7425 19.6515 39.7425 21.351C39.7425 22.9181 38.372 24.3049 36.8677 25.0221C38.4165 25.559 38.5504 26.8765 38.5504 27.8085C38.5504 30.0605 36.1535 32.1646 33.0377 32.1646H26.2423L28.893 22.5166L27.8042 22.5107L30.0299 18.4627C30.0299 18.4627 34.2737 18.4506 36.1436 18.4627ZM33.8876 24.0181C34.3632 24.0181 35.2031 23.9045 35.413 23.0368C35.6431 22.0946 34.8549 22.0693 34.4769 22.0693L33.1259 22.0638L32.6548 24.0181H33.8876ZM31.9776 26.4394L31.3556 28.6912H32.9464C33.5721 28.6912 34.425 28.3983 34.634 27.6655C34.8405 26.9307 34.2442 26.4394 33.6208 26.4394H31.9776Z" fill="white"/>
<path fill-rule="evenodd" clip-rule="evenodd" d="M14.9299 33.8482C12.5769 33.8482 10.1591 33.3019 7.74434 32.2215L7.68508 32.1941L7.65674 32.1371C6.5731 29.9809 5.99988 27.6226 5.99988 25.3151C5.99988 23.011 6.54959 20.7535 7.63388 18.6001L7.66383 18.5429L7.72421 18.5144C9.958 17.5168 12.3609 17.0117 14.8687 17.0117C17.2046 17.0117 19.6995 17.5741 22.0823 18.6411L22.1433 18.6668L22.1716 18.725C23.2759 20.9211 23.8583 23.2789 23.8583 25.5483C23.8583 27.8085 23.2991 30.0681 22.1934 32.2628L22.1644 32.3203L22.1029 32.3471C19.903 33.3287 17.4226 33.8482 14.9299 33.8482ZM7.96783 31.9258C10.3135 32.9662 12.6533 33.4914 14.9299 33.4914C17.3438 33.4914 19.7444 32.994 21.8816 32.0511C22.9432 29.9244 23.4813 27.7357 23.4813 25.5483C23.4813 23.3518 22.9197 21.0673 21.8573 18.9357C19.5449 17.911 17.13 17.3676 14.8687 17.3676C12.4409 17.3676 10.1137 17.853 7.94754 18.8108C6.90769 20.8979 6.37843 23.0849 6.37843 25.3151C6.37843 27.5493 6.9283 29.8348 7.96783 31.9258Z" fill="white"/>
</svg>
