<svg width="70" height="50" viewBox="0 0 70 50" fill="none" xmlns="http://www.w3.org/2000/svg">
<rect width="70" height="50" rx="4" fill="#108EE9"/>
<path fill-rule="evenodd" clip-rule="evenodd" d="M15.1095 17H14.8762C12.9372 17.0408 11.0273 17.8167 9.61917 19.1513C7.96833 20.6797 7.021 22.9068 7 25.1515V25.3603C7.03967 27.5583 7.96017 29.7342 9.56317 31.2462C10.983 32.6182 12.929 33.4173 14.9042 33.45H15.1328C17.8022 33.4197 20.3712 31.9252 21.7595 29.6537C22.9472 27.7707 23.3123 25.4023 22.785 23.2428C22.3428 21.3797 21.2275 19.6822 19.6828 18.5482C18.3703 17.5682 16.7463 17.0303 15.1095 17ZM11.4847 23.6838C12.2383 23.9043 13.0422 23.7702 13.776 23.5333C14.1804 23.4 14.5785 23.2476 14.9766 23.0952L14.9766 23.0952L14.9766 23.0952L14.9766 23.0952L14.9766 23.0952C15.6202 22.8488 16.2638 22.6024 16.9342 22.4367C17.8313 22.2267 18.8393 22.3958 19.558 22.9908C19.7002 23.1274 19.6999 23.3247 19.6996 23.5118C19.6995 23.5581 19.6994 23.6037 19.7015 23.6477C19.6935 24.25 19.6963 24.8524 19.6992 25.4549V25.4549V25.4549V25.455V25.455C19.7034 26.3427 19.7076 27.2304 19.677 28.1172C19.5687 28.0711 19.461 28.0222 19.3532 27.9732L19.3531 27.9732L19.3531 27.9732L19.3531 27.9732L19.3531 27.9732C18.909 27.7716 18.4625 27.5689 17.9632 27.5595C16.9217 27.5023 15.959 27.8479 14.9945 28.1942C14.2097 28.476 13.4237 28.7582 12.593 28.8242C11.8393 28.8767 11.0518 28.6982 10.4405 28.2443C10.3153 28.071 10.3215 27.854 10.3276 27.6416C10.3301 27.5552 10.3326 27.4696 10.3262 27.388C10.3378 26.849 10.3326 26.3089 10.3275 25.7688C10.3192 24.8979 10.3109 24.027 10.3728 23.16C10.5104 23.2213 10.6427 23.2942 10.775 23.367C11.0029 23.4926 11.2307 23.6181 11.4847 23.6838ZM27.301 21.097C26.8884 21.0996 26.4758 21.1022 26.0633 21.0973C26.0627 22.4822 26.0627 23.8673 26.0627 25.2526C26.0627 26.6378 26.0627 28.0233 26.0622 29.4087C26.5218 29.4093 26.9812 29.4093 27.4406 29.4093C27.9 29.4093 28.3593 29.4093 28.819 29.4098C29.4875 29.411 30.163 29.2827 30.7603 28.9735C32.3493 28.1942 33.2698 26.3205 32.9653 24.5833C32.7133 22.775 31.1337 21.2385 29.2985 21.116C28.6329 21.0886 27.9669 21.0928 27.301 21.097H27.301ZM27.7998 26.9407C27.8032 25.5887 27.8067 24.2367 27.7947 22.8847C27.9729 22.8902 28.1522 22.887 28.3316 22.8839C28.7241 22.8771 29.1172 22.8702 29.5015 22.9535C30.4593 23.1728 31.1978 24.0653 31.2655 25.0407C31.367 26.0113 30.8035 27.0135 29.9075 27.4102C29.4218 27.6397 28.888 27.6285 28.3598 27.6175C28.171 27.6135 27.983 27.6096 27.7982 27.6167L27.7998 26.9407ZM36.0523 24.4585C36.1083 22.656 37.7312 21.0367 39.5558 21.0985C41.3443 21.0798 42.9147 22.6642 42.9858 24.4317C43.0044 25.4471 43.0015 26.463 42.9987 27.4788V27.4802V27.4802V27.4802C42.9969 28.1224 42.9951 28.7644 42.9987 29.4063L42.997 29.4063H42.9968H42.9966H42.9964C42.4173 29.4075 41.8394 29.4087 41.2615 29.4063C41.2586 29.1088 41.2589 28.8113 41.2592 28.5139V28.5128V28.5128V28.5128C41.2595 28.2158 41.2597 27.919 41.2568 27.6225C40.5746 27.6259 39.8929 27.6253 39.2112 27.6247C38.7342 27.6243 38.2572 27.6239 37.7802 27.6248C37.7784 27.8466 37.7793 28.0686 37.7801 28.2906C37.7816 28.6653 37.783 29.0401 37.772 29.4145C37.3871 29.4052 37.0027 29.4062 36.6184 29.4072H36.6184H36.6183H36.6182H36.6181H36.6181H36.618C36.4259 29.4078 36.2339 29.4083 36.0418 29.4075C36.044 28.8076 36.0424 28.2076 36.0408 27.6076V27.6075V27.6075V27.6075C36.038 26.5575 36.0353 25.5075 36.0523 24.4585ZM38.2247 23.4808C37.7512 23.9924 37.765 24.6828 37.7782 25.3443V25.3444V25.3444V25.3445C37.7816 25.5126 37.7849 25.6789 37.7802 25.8398C38.2435 25.8403 38.707 25.84 39.1706 25.8397H39.1706H39.1706H39.1707C39.8661 25.8393 40.5617 25.8389 41.2568 25.841C41.2525 25.6806 41.2562 25.5151 41.26 25.3477C41.2745 24.7011 41.2896 24.0277 40.8438 23.517C40.222 22.7003 38.8687 22.6817 38.2247 23.4808ZM46.0378 24.4772C46.0892 22.8905 47.3293 21.4182 48.9032 21.151C50.0745 20.9258 51.3298 21.3867 52.0928 22.299C52.6832 22.9488 52.9842 23.8285 52.9842 24.7012C52.9865 25.7472 52.9857 26.7927 52.9849 27.8384V27.8385C52.9846 28.3614 52.9842 28.8844 52.9842 29.4075C52.7874 29.4087 52.5905 29.408 52.3935 29.4073H52.3935H52.3935C52.0136 29.4059 51.6335 29.4045 51.254 29.4168C51.2415 28.5281 51.2435 27.6391 51.2455 26.75V26.7494C51.247 26.0654 51.2486 25.3814 51.2435 24.6977C51.2528 24.063 50.9133 23.4307 50.358 23.1157C49.7817 22.7703 49.0012 22.8217 48.4727 23.237C48.0153 23.5788 47.7598 24.1482 47.768 24.7152C47.7653 25.6079 47.7657 26.5003 47.7661 27.3928V27.3961C47.7664 28.0665 47.7667 28.7369 47.7657 29.4075C47.554 29.4067 47.3423 29.407 47.1306 29.4074C46.7601 29.4081 46.3896 29.4088 46.0192 29.4028C46.0315 28.6114 46.0293 27.8197 46.027 27.028C46.0246 26.1776 46.0221 25.3272 46.0378 24.4772ZM56.5798 22.7085C57.2507 21.6632 58.4897 20.9888 59.7415 21.1078C61.1567 21.1953 62.412 22.2733 62.804 23.6208C62.9487 24.0758 62.9556 24.551 62.9624 25.0258C62.9664 25.2974 62.9703 25.5689 63 25.8363V29.3982C62.5555 29.4104 62.111 29.4089 61.6665 29.4074C61.5183 29.4068 61.3702 29.4063 61.222 29.4063C61.2213 29.2147 61.2216 29.023 61.2219 28.8312C61.2226 28.4263 61.2233 28.0212 61.2138 27.6167C60.5101 27.6273 59.806 27.6259 59.1016 27.6244H59.1016C58.6488 27.6235 58.1959 27.6226 57.743 27.6248C57.7424 27.9218 57.7424 28.2187 57.7424 28.5157C57.7424 28.8128 57.7424 29.11 57.7418 29.4075H56.0035C56.0029 28.6416 56.0029 27.876 56.0029 27.1105C56.0029 26.345 56.0029 25.5797 56.0023 24.8143C55.9942 24.077 56.1703 23.328 56.5798 22.7085ZM58.1782 23.4925C57.714 24.0022 57.7278 24.687 57.741 25.3435C57.7444 25.5119 57.7478 25.6785 57.743 25.8398C58.5149 25.8406 59.2867 25.8404 60.0583 25.8401H60.0622L61.2208 25.8398C61.2157 25.6753 61.2193 25.5055 61.223 25.3339V25.3337C61.2367 24.6899 61.251 24.021 60.8043 23.5135C60.1767 22.6957 58.8175 22.6852 58.1782 23.4925Z" fill="white"/>
</svg>
