<svg width="70" height="50" viewBox="0 0 70 50" fill="none" xmlns="http://www.w3.org/2000/svg">
<rect width="70" height="50" rx="4" fill="white"/>
<path fill-rule="evenodd" clip-rule="evenodd" d="M44.753 14C44.5212 14.0006 44.2901 14.0085 44.0626 14.0345C43.1725 14.1358 42.3352 14.5806 41.7337 15.267C41.2876 15.7762 40.9779 16.4068 40.8465 17.081C40.7817 17.4139 40.7734 17.7476 40.7734 18.0849V20.3238V21.4091V21.728C40.7734 21.8134 40.7537 21.8201 40.8447 21.8201H42.2689H43.6878H45.1154C45.5815 21.8201 46.0513 21.8019 46.516 21.8456C46.9738 21.8887 47.4399 22.0238 47.8101 22.3152C48.3308 22.7251 48.5425 23.4323 48.3645 24.0827C48.1938 24.7072 47.6817 25.1259 47.0963 25.2997C47.0315 25.3189 46.966 25.3355 46.8999 25.3495C46.8616 25.3578 46.81 25.3562 46.7751 25.373C46.758 25.3812 46.7143 25.3915 46.7463 25.423C46.7544 25.4309 46.7883 25.4308 46.8132 25.4306C46.8235 25.4305 46.8322 25.4305 46.8372 25.4309C47.0209 25.4492 47.2036 25.4822 47.3819 25.5326C47.9269 25.6865 48.456 26.0175 48.7086 26.5609C49.0074 27.2039 48.8551 28.0003 48.3722 28.4991C47.9919 28.8921 47.4611 29.0926 46.9356 29.1591C46.6721 29.1923 46.4068 29.1855 46.1419 29.1855H44.7143H43.2867H41.8676H41.1538H40.9754C40.9347 29.1855 40.8197 29.1646 40.7863 29.1855C40.7668 29.1978 40.7734 29.2156 40.7734 29.2481V30.6144V33.0255V35.4619V36.904C40.7734 36.9185 40.764 36.9818 40.7734 36.9934C40.7848 37.0072 40.8805 36.9951 40.904 36.9951H41.0824H41.7963H43.2153H44.6429H46.0659C46.9137 36.9951 47.7209 36.7673 48.4079 36.2349C49.3397 35.5129 49.8901 34.3651 49.8948 33.1604C49.895 33.1138 49.8951 33.0671 49.8951 33.0205V32.9523C49.895 32.8492 49.8948 32.746 49.8948 32.6428V31.3729C49.8948 30.7581 49.8948 30.1434 49.8948 29.5287C49.8948 28.7735 49.8948 28.0184 49.8948 27.2632C49.8948 26.43 49.8948 25.5966 49.8948 24.7633C49.8948 23.901 49.8948 23.0387 49.8948 22.1764C49.8948 21.3448 49.8948 20.5134 49.8948 19.6818C49.8948 18.9403 49.8948 18.199 49.8948 17.4575C49.8948 16.856 49.8948 16.2544 49.8948 15.6529V14.4513C49.8948 14.3046 49.8948 14.1579 49.8948 14.0111H49.8802C49.4266 14.0119 48.9729 14.0111 48.5193 14.0111H47.0963H45.6686C45.3867 14.0111 45.1 14.0008 44.8142 14H44.753ZM42.5584 22.9839C42.5468 23.0104 42.5584 23.0689 42.5584 23.0974V24.1171V24.5936C42.5584 24.6334 42.5399 24.7702 42.5679 24.7905C42.5919 24.8077 42.6956 24.7905 42.7265 24.7905H42.8978H43.2275H43.8823C44.0974 24.7905 44.3129 24.7944 44.5278 24.7905C44.7941 24.7856 45.0521 24.706 45.2414 24.5106C45.4556 24.2897 45.5322 23.9646 45.467 23.6664C45.4373 23.5345 45.38 23.4108 45.2955 23.305C45.1334 23.1024 44.8919 22.9901 44.6362 22.9693C44.5147 22.9595 44.3921 22.964 44.2703 22.964H43.6155H42.9479H42.6229C42.6053 22.964 42.5936 22.9624 42.585 22.9624C42.5721 22.9624 42.5664 22.966 42.5584 22.9839ZM43.9652 25.9868H42.558C42.558 26.0056 42.558 26.0244 42.558 26.0432V27.0631V27.6653V27.8851C42.558 27.9165 42.5455 27.9828 42.558 28.0116C42.5769 28.0552 42.7518 28.0306 42.8078 28.0306H43.164H43.8676H44.5751C44.805 28.0306 45.0256 28.0159 45.2294 27.8897C45.477 27.7364 45.6457 27.4687 45.6881 27.1704C45.7366 26.8294 45.6264 26.4765 45.3807 26.245C45.1818 26.0577 44.9351 25.9889 44.6728 25.9868C44.594 25.9861 44.5154 25.9859 44.4368 25.9859C44.2796 25.9859 44.1223 25.9868 43.9652 25.9868Z" fill="url(#paint0_linear_508_1646)"/>
<mask id="mask0_508_1646" style="mask-type:alpha" maskUnits="userSpaceOnUse" x="40" y="14" width="10" height="23">
<path fill-rule="evenodd" clip-rule="evenodd" d="M44.753 14C44.5212 14.0006 44.2901 14.0085 44.0626 14.0345C43.1725 14.1358 42.3352 14.5806 41.7337 15.267C41.2876 15.7762 40.9779 16.4068 40.8465 17.081C40.7817 17.4139 40.7734 17.7476 40.7734 18.0849V20.3238V21.4091V21.728C40.7734 21.8134 40.7537 21.8201 40.8447 21.8201H42.2689H43.6878H45.1154C45.5815 21.8201 46.0513 21.8019 46.516 21.8456C46.9738 21.8887 47.4399 22.0238 47.8101 22.3152C48.3308 22.7251 48.5425 23.4323 48.3645 24.0827C48.1938 24.7072 47.6817 25.1259 47.0963 25.2997C47.0315 25.3189 46.966 25.3355 46.8999 25.3495C46.8616 25.3578 46.81 25.3562 46.7751 25.373C46.758 25.3812 46.7143 25.3915 46.7463 25.423C46.7544 25.4309 46.7883 25.4308 46.8132 25.4306C46.8235 25.4305 46.8322 25.4305 46.8372 25.4309C47.0209 25.4492 47.2036 25.4822 47.3819 25.5326C47.9269 25.6865 48.456 26.0175 48.7086 26.5609C49.0074 27.2039 48.8551 28.0003 48.3722 28.4991C47.9919 28.8921 47.4611 29.0926 46.9356 29.1591C46.6721 29.1923 46.4068 29.1855 46.1419 29.1855H44.7143H43.2867H41.8676H41.1538H40.9754C40.9347 29.1855 40.8197 29.1646 40.7863 29.1855C40.7668 29.1978 40.7734 29.2156 40.7734 29.2481V30.6144V33.0255V35.4619V36.904C40.7734 36.9185 40.764 36.9818 40.7734 36.9934C40.7848 37.0072 40.8805 36.9951 40.904 36.9951H41.0824H41.7963H43.2153H44.6429H46.0659C46.9137 36.9951 47.7209 36.7673 48.4079 36.2349C49.3397 35.5129 49.8901 34.3651 49.8948 33.1604C49.895 33.1138 49.8951 33.0671 49.8951 33.0205V32.9523C49.895 32.8492 49.8948 32.746 49.8948 32.6428V31.3729C49.8948 30.7581 49.8948 30.1434 49.8948 29.5287C49.8948 28.7735 49.8948 28.0184 49.8948 27.2632C49.8948 26.43 49.8948 25.5966 49.8948 24.7633C49.8948 23.901 49.8948 23.0387 49.8948 22.1764C49.8948 21.3448 49.8948 20.5134 49.8948 19.6818C49.8948 18.9403 49.8948 18.199 49.8948 17.4575C49.8948 16.856 49.8948 16.2544 49.8948 15.6529V14.4513C49.8948 14.3046 49.8948 14.1579 49.8948 14.0111H49.8802C49.4266 14.0119 48.9729 14.0111 48.5193 14.0111H47.0963H45.6686C45.3867 14.0111 45.1 14.0008 44.8142 14H44.753ZM42.5584 22.9839C42.5468 23.0104 42.5584 23.0689 42.5584 23.0974V24.1171V24.5936C42.5584 24.6334 42.5399 24.7702 42.5679 24.7905C42.5919 24.8077 42.6956 24.7905 42.7265 24.7905H42.8978H43.2275H43.8823C44.0974 24.7905 44.3129 24.7944 44.5278 24.7905C44.7941 24.7856 45.0521 24.706 45.2414 24.5106C45.4556 24.2897 45.5322 23.9646 45.467 23.6664C45.4373 23.5345 45.38 23.4108 45.2955 23.305C45.1334 23.1024 44.8919 22.9901 44.6362 22.9693C44.5147 22.9595 44.3921 22.964 44.2703 22.964H43.6155H42.9479H42.6229C42.6053 22.964 42.5936 22.9624 42.585 22.9624C42.5721 22.9624 42.5664 22.966 42.5584 22.9839ZM43.9652 25.9868H42.558C42.558 26.0056 42.558 26.0244 42.558 26.0432V27.0631V27.6653V27.8851C42.558 27.9165 42.5455 27.9828 42.558 28.0116C42.5769 28.0552 42.7518 28.0306 42.8078 28.0306H43.164H43.8676H44.5751C44.805 28.0306 45.0256 28.0159 45.2294 27.8897C45.477 27.7364 45.6457 27.4687 45.6881 27.1704C45.7366 26.8294 45.6264 26.4765 45.3807 26.245C45.1818 26.0577 44.9351 25.9889 44.6728 25.9868C44.594 25.9861 44.5154 25.9859 44.4368 25.9859C44.2796 25.9859 44.1223 25.9868 43.9652 25.9868Z" fill="white"/>
</mask>
<g mask="url(#mask0_508_1646)">
</g>
<path fill-rule="evenodd" clip-rule="evenodd" d="M23.1354 14.0512C22.6043 14.1395 22.0944 14.349 21.6489 14.6577C20.6224 15.3693 20.0081 16.5742 20.0036 17.8421C20.0023 18.2148 20.0036 18.5876 20.0036 18.9605V21.3348V24.0953V26.3723V27.0595V27.2409C20.0036 27.3112 20.0029 27.2965 20.081 27.3345C20.1677 27.3767 20.2549 27.4177 20.3426 27.4576C21.0421 27.7752 21.7799 28.0169 22.5413 28.1121C23.0887 28.1805 23.6731 28.1995 24.1901 27.9758C24.6041 27.7966 24.9342 27.4659 25.1037 27.0371C25.2128 26.7615 25.244 26.4704 25.244 26.1756V22.9077V22.172V21.9373C25.244 21.9138 25.2311 21.8406 25.244 21.8209C25.2602 21.7964 25.3882 21.8121 25.425 21.8121H25.7039H26.2539H28.4613V21.8794V25.1055C28.4613 25.4842 28.4621 25.8631 28.4613 26.2418C28.4606 26.683 28.3974 27.1259 28.2212 27.5314C28.0457 27.9357 27.7641 28.277 27.4161 28.5368C26.5719 29.1673 25.4533 29.3316 24.4331 29.3789C23.7032 29.4127 22.9704 29.3835 22.2437 29.3091C21.4927 29.2323 20.733 29.1181 20.0036 28.9167V29.1783V30.9721V33.5892V35.9533V36.7055V36.9166C20.0036 36.9278 19.9955 36.9833 20.0036 36.9924C20.0188 37.0095 20.1571 36.9925 20.1844 36.9925H20.3693H20.7478H21.4961H22.996H24.4964C25.1325 36.9925 25.785 37.0374 26.4068 36.8763C27.494 36.5949 28.4178 35.8073 28.8881 34.7645C29.1462 34.1922 29.2308 33.5838 29.2308 32.9605V31.9335V30.2031V27.9608V25.4085V22.7165V20.0855V17.7159V15.7792V14.4769V14.0003H28.8579H27.2992H25.7399H24.1854C24.1161 14.0003 24.047 14 23.9778 14C23.6961 14 23.415 14.0047 23.1354 14.0512Z" fill="url(#paint1_linear_508_1646)"/>
<mask id="mask1_508_1646" style="mask-type:alpha" maskUnits="userSpaceOnUse" x="20" y="14" width="10" height="23">
<path fill-rule="evenodd" clip-rule="evenodd" d="M23.1354 14.0512C22.6043 14.1395 22.0944 14.349 21.6489 14.6577C20.6224 15.3693 20.0081 16.5742 20.0036 17.8421C20.0023 18.2148 20.0036 18.5876 20.0036 18.9605V21.3348V24.0953V26.3723V27.0595V27.2409C20.0036 27.3112 20.0029 27.2965 20.081 27.3345C20.1677 27.3767 20.2549 27.4177 20.3426 27.4576C21.0421 27.7752 21.7799 28.0169 22.5413 28.1121C23.0887 28.1805 23.6731 28.1995 24.1901 27.9758C24.6041 27.7966 24.9342 27.4659 25.1037 27.0371C25.2128 26.7615 25.244 26.4704 25.244 26.1756V22.9077V22.172V21.9373C25.244 21.9138 25.2311 21.8406 25.244 21.8209C25.2602 21.7964 25.3882 21.8121 25.425 21.8121H25.7039H26.2539H28.4613V21.8794V25.1055C28.4613 25.4842 28.4621 25.8631 28.4613 26.2418C28.4606 26.683 28.3974 27.1259 28.2212 27.5314C28.0457 27.9357 27.7641 28.277 27.4161 28.5368C26.5719 29.1673 25.4533 29.3316 24.4331 29.3789C23.7032 29.4127 22.9704 29.3835 22.2437 29.3091C21.4927 29.2323 20.733 29.1181 20.0036 28.9167V29.1783V30.9721V33.5892V35.9533V36.7055V36.9166C20.0036 36.9278 19.9955 36.9833 20.0036 36.9924C20.0188 37.0095 20.1571 36.9925 20.1844 36.9925H20.3693H20.7478H21.4961H22.996H24.4964C25.1325 36.9925 25.785 37.0374 26.4068 36.8763C27.494 36.5949 28.4178 35.8073 28.8881 34.7645C29.1462 34.1922 29.2308 33.5838 29.2308 32.9605V31.9335V30.2031V27.9608V25.4085V22.7165V20.0855V17.7159V15.7792V14.4769V14.0003H28.8579H27.2992H25.7399H24.1854C24.1161 14.0003 24.047 14 23.9778 14C23.6961 14 23.415 14.0047 23.1354 14.0512Z" fill="white"/>
</mask>
<g mask="url(#mask1_508_1646)">
</g>
<path fill-rule="evenodd" clip-rule="evenodd" d="M33.851 14.0095C33.451 14.0356 33.0552 14.1287 32.6844 14.2861C31.867 14.6333 31.1873 15.2815 30.7869 16.0948C30.5246 16.6273 30.3921 17.2192 30.3897 17.8158C30.3893 17.9124 30.3897 18.0089 30.3897 18.1056V19.7984V22.8079C30.4147 22.7857 30.4402 22.7639 30.4662 22.7422C30.5577 22.6658 30.6531 22.5944 30.7512 22.5274C31.3625 22.1108 32.0758 21.8775 32.7914 21.7397C33.3739 21.6276 33.9669 21.5794 34.5589 21.5677C35.1413 21.5563 35.7254 21.5767 36.3047 21.6414C36.8958 21.7072 37.4832 21.81 38.0643 21.9385C38.1357 21.9543 38.207 21.9705 38.2782 21.9873C38.3162 21.9963 38.4622 22.0086 38.4825 22.0387C38.497 22.0602 38.4825 22.1461 38.4825 22.171V22.4814V23.6515C38.3999 23.6086 38.317 23.5665 38.2333 23.5258C37.601 23.2175 36.9345 22.9885 36.2427 22.8759C35.3133 22.7245 34.2616 22.7287 33.459 23.3022C32.6844 23.8558 32.4133 24.8381 32.497 25.7722C32.5785 26.6813 33.0659 27.4607 33.8866 27.8241C34.6974 28.1831 35.6383 28.1348 36.4874 27.9616C37.1841 27.8196 37.8483 27.5594 38.4825 27.2332V27.3487V28.7125C38.4825 28.7379 38.4972 28.8241 38.4825 28.8459C38.4627 28.8752 38.3146 28.8877 38.2782 28.8963C38.13 28.9312 37.9812 28.9639 37.8321 28.9948C37.2466 29.1163 36.655 29.2127 36.06 29.2676C35.4775 29.3214 34.8891 29.332 34.3048 29.3092C33.7084 29.2862 33.1113 29.2228 32.5281 29.0895C31.7592 28.9139 30.9938 28.6118 30.3897 28.0773V28.3285V30.0849V32.7054V35.2566V36.7694C30.3897 36.7873 30.3782 36.862 30.3897 36.8764C30.4147 36.9076 30.6221 36.882 30.6707 36.882H31.4282H32.951H34.4658C35.0005 36.882 35.5445 36.9114 36.0778 36.8721C37.045 36.8009 37.9609 36.3295 38.5985 35.5758C39.2092 34.8539 39.5105 33.9403 39.5105 32.9881V32.1341V30.5016V28.2965V25.7234V22.9974V20.3007V17.8572V15.8515V14.4982V14.0017H39.2308H36.8794H34.5371C34.4264 14.0017 34.3153 14 34.2042 14C34.0863 14 33.9684 14.0019 33.851 14.0095Z" fill="url(#paint2_linear_508_1646)"/>
<mask id="mask2_508_1646" style="mask-type:alpha" maskUnits="userSpaceOnUse" x="30" y="14" width="10" height="23">
<path fill-rule="evenodd" clip-rule="evenodd" d="M33.851 14.0095C33.451 14.0356 33.0552 14.1287 32.6844 14.2861C31.867 14.6333 31.1873 15.2815 30.7869 16.0948C30.5246 16.6273 30.3921 17.2192 30.3897 17.8158C30.3893 17.9124 30.3897 18.0089 30.3897 18.1056V19.7984V22.8079C30.4147 22.7857 30.4402 22.7639 30.4662 22.7422C30.5577 22.6658 30.6531 22.5944 30.7512 22.5274C31.3625 22.1108 32.0758 21.8775 32.7914 21.7397C33.3739 21.6276 33.9669 21.5794 34.5589 21.5677C35.1413 21.5563 35.7254 21.5767 36.3047 21.6414C36.8958 21.7072 37.4832 21.81 38.0643 21.9385C38.1357 21.9543 38.207 21.9705 38.2782 21.9873C38.3162 21.9963 38.4622 22.0086 38.4825 22.0387C38.497 22.0602 38.4825 22.1461 38.4825 22.171V22.4814V23.6515C38.3999 23.6086 38.317 23.5665 38.2333 23.5258C37.601 23.2175 36.9345 22.9885 36.2427 22.8759C35.3133 22.7245 34.2616 22.7287 33.459 23.3022C32.6844 23.8558 32.4133 24.8381 32.497 25.7722C32.5785 26.6813 33.0659 27.4607 33.8866 27.8241C34.6974 28.1831 35.6383 28.1348 36.4874 27.9616C37.1841 27.8196 37.8483 27.5594 38.4825 27.2332V27.3487V28.7125C38.4825 28.7379 38.4972 28.8241 38.4825 28.8459C38.4627 28.8752 38.3146 28.8877 38.2782 28.8963C38.13 28.9312 37.9812 28.9639 37.8321 28.9948C37.2466 29.1163 36.655 29.2127 36.06 29.2676C35.4775 29.3214 34.8891 29.332 34.3048 29.3092C33.7084 29.2862 33.1113 29.2228 32.5281 29.0895C31.7592 28.9139 30.9938 28.6118 30.3897 28.0773V28.3285V30.0849V32.7054V35.2566V36.7694C30.3897 36.7873 30.3782 36.862 30.3897 36.8764C30.4147 36.9076 30.6221 36.882 30.6707 36.882H31.4282H32.951H34.4658C35.0005 36.882 35.5445 36.9114 36.0778 36.8721C37.045 36.8009 37.9609 36.3295 38.5985 35.5758C39.2092 34.8539 39.5105 33.9403 39.5105 32.9881V32.1341V30.5016V28.2965V25.7234V22.9974V20.3007V17.8572V15.8515V14.4982V14.0017H39.2308H36.8794H34.5371C34.4264 14.0017 34.3153 14 34.2042 14C34.0863 14 33.9684 14.0019 33.851 14.0095Z" fill="white"/>
</mask>
<g mask="url(#mask2_508_1646)">
</g>
<defs>
<linearGradient id="paint0_linear_508_1646" x1="49.8951" y1="13.0053" x2="41.0777" y2="13.0053" gradientUnits="userSpaceOnUse">
<stop stop-color="#43C311"/>
<stop offset="1" stop-color="#288C00"/>
</linearGradient>
<linearGradient id="paint1_linear_508_1646" x1="20.0238" y1="37.0575" x2="29.3469" y2="37.0575" gradientUnits="userSpaceOnUse">
<stop stop-color="#21469E"/>
<stop offset="1" stop-color="#1E81EB"/>
</linearGradient>
<linearGradient id="paint2_linear_508_1646" x1="39.5105" y1="14" x2="30.3846" y2="14" gradientUnits="userSpaceOnUse">
<stop stop-color="#F42D3E"/>
<stop offset="1" stop-color="#9C0017"/>
</linearGradient>
</defs>
</svg>
