<svg width="70" height="50" viewBox="0 0 70 50" fill="none" xmlns="http://www.w3.org/2000/svg">
<rect width="70" height="50" rx="4" fill="#E82529"/>
<path fill-rule="evenodd" clip-rule="evenodd" d="M31.0011 8.03758C31.3532 7.96522 31.7416 7.98831 32.05 8.18691C32.4606 8.4363 32.6838 8.93253 32.6438 9.40567C32.5714 10.2601 31.8843 11.0309 31.036 11.1792C30.6435 11.2515 30.215 11.1643 29.9045 10.9062C29.5976 10.6598 29.4262 10.2601 29.4519 9.86803C29.5196 9.01977 30.1431 8.20025 31.0011 8.03758ZM43.9857 8.50199C44.2891 8.47588 44.5953 8.4798 44.9014 8.48371C45.0887 8.48611 45.276 8.48851 45.4626 8.48403C45.625 8.48509 45.7873 8.48448 45.9497 8.48388C46.1804 8.48302 46.4111 8.48216 46.6418 8.48608C46.747 8.4753 46.8394 8.57948 46.8127 8.68313C46.5138 10.8554 46.2127 13.0276 45.9116 15.1996L45.911 15.204L45.9103 15.2084L45.9102 15.2092C45.6756 16.9012 45.4411 18.5932 45.2076 20.2852L45.2067 20.2905C45.1946 20.3691 45.18 20.4636 45.0967 20.4992C45.0219 20.5188 44.9448 20.518 44.8682 20.5172C44.8423 20.5169 44.8165 20.5167 44.7909 20.5172C44.4055 20.5154 44.0201 20.5158 43.6347 20.5162C43.2494 20.5165 42.8642 20.5169 42.4791 20.5151C42.3528 20.5341 42.2456 20.4089 42.2815 20.2873C42.6016 17.9624 42.9238 15.6379 43.2461 13.3134L43.2464 13.3113L43.2466 13.3098L43.2469 13.308L43.2472 13.3057L43.2475 13.3033L43.2478 13.3009L43.2482 13.2986L43.2485 13.2964C43.4618 11.758 43.6751 10.2196 43.8877 8.68108C43.8964 8.61283 43.9139 8.53072 43.9857 8.50199ZM21.9258 8.94556C21.546 8.94164 21.1663 8.93773 20.7887 8.96383C20.6655 9.0013 20.5844 9.1224 20.5767 9.24813C20.3599 10.873 20.1438 12.498 19.9277 14.1231C19.7593 15.3896 19.5909 16.6561 19.4221 17.9226C19.3729 18.2685 19.4114 18.6287 19.5448 18.9526C19.9563 19.9563 21.0463 20.5777 22.1101 20.5731L22.5968 20.5734C24.0609 20.5744 25.5253 20.5754 26.9892 20.5726C27.1227 20.5803 27.2417 20.4684 27.2479 20.336C27.275 20.1528 27.3023 19.9695 27.3297 19.7862C27.4145 19.2175 27.4993 18.6485 27.5789 18.0792C27.6081 17.9432 27.4747 17.8277 27.3438 17.8477C26.7882 17.8471 26.2326 17.8474 25.6771 17.8478C24.7973 17.8483 23.9176 17.8488 23.0379 17.8457C22.732 17.8595 22.4678 17.5568 22.5273 17.2555C22.7161 15.93 22.9083 14.6049 23.1005 13.2798C23.2927 11.9547 23.4848 10.6296 23.6737 9.30406C23.707 9.13523 23.5711 8.95922 23.3997 8.95152C23.2398 8.94232 23.0796 8.9439 22.9194 8.94549C22.8203 8.94646 22.7212 8.94744 22.6222 8.94587C22.3904 8.95035 22.1581 8.94796 21.9258 8.94556ZM35.3933 11.757C36.298 11.6559 37.2099 11.6487 38.1197 11.6425C38.9654 11.6477 39.8547 11.8401 40.5147 12.3984C41.1182 12.8993 41.4466 13.669 41.5133 14.4393C41.5608 14.8679 41.5027 15.2944 41.4449 15.7194L41.4449 15.7195L41.4449 15.7196L41.4449 15.7198L41.4448 15.7199L41.4448 15.7201L41.4448 15.7202L41.4448 15.7204L41.4448 15.7205L41.4448 15.7206C41.4283 15.8417 41.4118 15.9626 41.3978 16.0835C41.2446 17.2374 41.0721 18.3885 40.8997 19.5395C40.8649 19.772 40.83 20.0045 40.7954 20.237C40.7902 20.3945 40.6419 20.5131 40.4875 20.492C40.1816 20.491 39.8756 20.4915 39.5697 20.4921C39.1028 20.4928 38.6359 20.4936 38.169 20.489C37.9925 20.49 37.8662 20.3006 37.9119 20.1354L37.9861 19.6142L37.9861 19.6137C38.115 18.7077 38.2439 17.8013 38.3825 16.8963C38.4032 16.7523 38.426 16.6085 38.4489 16.4645C38.5207 16.0124 38.5926 15.5598 38.598 15.1013L38.5975 15.0762C38.5922 14.8134 38.5862 14.5176 38.3927 14.3172C38.1741 14.0939 37.856 14.0072 37.5548 13.9697C37.1647 13.923 36.7712 13.962 36.3858 14.0252L36.0687 16.2594C35.8705 17.6564 35.6722 19.0533 35.4744 20.4505C35.0182 20.0605 34.4193 19.809 33.8117 19.8757C33.3643 19.8906 32.9609 20.1036 32.5894 20.334L32.7573 19.1789L32.7573 19.1788C32.9844 17.6149 33.2115 16.0512 33.4479 14.4885C33.4706 14.3519 33.4917 14.215 33.5128 14.0779L33.5128 14.0778C33.5721 13.6919 33.6315 13.3057 33.7281 12.927C33.8061 12.6335 33.9293 12.3286 34.1822 12.1424C34.5267 11.8802 34.971 11.817 35.3883 11.7577L35.3933 11.757ZM29.5822 11.8595C29.5064 11.8592 29.4303 11.8588 29.3575 11.8801C29.2353 11.9227 29.1635 12.0459 29.1548 12.1701C29.0057 13.2414 28.8557 14.3126 28.7056 15.3839L28.7056 15.3842L28.7055 15.3845L28.7055 15.3848L28.7054 15.3851L28.7054 15.3854L28.7053 15.386L28.7051 15.3874L28.7049 15.3888C28.4786 17.0042 28.2524 18.6196 28.0294 20.2355C27.994 20.3761 28.1254 20.5105 28.266 20.491C29.0547 20.4926 29.8434 20.4931 30.6322 20.491C30.8262 20.5023 30.9827 20.3278 30.9868 20.1405C31.1468 18.9987 31.3077 17.857 31.4686 16.7152L31.4688 16.7139L31.469 16.7126L31.4691 16.7116C31.6797 15.2176 31.8903 13.7235 32.0988 12.2291C32.1383 12.0526 31.9957 11.8622 31.8125 11.8637C31.4165 11.8586 31.0206 11.8595 30.6246 11.8603C30.3016 11.861 29.9786 11.8616 29.6556 11.8591C29.6313 11.8597 29.6067 11.8596 29.5822 11.8595H29.5822ZM48.9952 12.1203C49.0942 11.9966 49.2482 11.9232 49.4073 11.9299C49.6776 11.9301 49.948 11.9296 50.2184 11.9292H50.2185H50.2185H50.2186H50.2186H50.2187H50.2187H50.2187C50.8049 11.9282 51.3912 11.9272 51.9772 11.9325C52.1676 11.9268 52.2502 12.1906 52.1075 12.3076C51.3406 13.1584 50.5722 14.0076 49.8037 14.857L49.8004 14.8605L49.1179 15.6149L49.8875 17.2639C50.5443 18.6709 51.2011 20.0779 51.8561 21.486C51.9828 21.6928 51.8104 21.9879 51.5672 21.9715C50.7959 21.9746 50.0241 21.9741 49.2528 21.972C49.1035 21.9833 48.9793 21.876 48.929 21.7426C48.416 20.627 47.9021 19.5117 47.3882 18.3964C46.9485 17.4421 46.5088 16.4878 46.0697 15.5333C46.5979 14.9179 47.1256 14.302 47.6532 13.6861L47.6574 13.6812L47.6599 13.6783L47.6641 13.6734C48.1077 13.1555 48.5513 12.6378 48.9952 12.1203ZM34.6672 21.0714C34.3726 20.8944 34.0114 20.8723 33.6799 20.9349C32.7972 21.0863 32.1501 21.9325 32.0973 22.8033C32.0849 23.1482 32.2204 23.4966 32.4698 23.7357C32.7644 24.0257 33.1985 24.1509 33.6049 24.0934C34.4937 23.9821 35.2276 23.1774 35.2917 22.2897C35.3271 21.8109 35.0895 21.3116 34.6672 21.0714ZM25.2807 21.853C25.0678 21.8515 24.8528 21.85 24.6472 21.912C24.251 22.0254 23.9226 22.3287 23.763 22.7074C23.1979 23.9597 22.6326 25.2119 22.0673 26.4641C21.0637 28.6874 20.06 30.9106 19.0578 33.1343C18.9603 33.2919 19.104 33.5053 19.2856 33.4782C20.0918 33.4766 20.898 33.471 21.7042 33.4643C21.8725 33.4699 22.0377 33.3699 22.1029 33.2134C22.2412 32.8965 22.3763 32.5782 22.5114 32.2599C22.6465 31.9416 22.7816 31.6233 22.9199 31.3064C22.9465 31.2079 23.0538 31.1982 23.1395 31.2028C23.5501 31.2039 23.9608 31.2036 24.3714 31.2033H24.3724C24.9197 31.2028 25.467 31.2024 26.0142 31.2054C26.0968 31.1956 26.1754 31.2582 26.1764 31.3429C26.2109 31.6578 26.241 31.9732 26.2711 32.2885L26.2711 32.2886L26.2711 32.2886L26.2711 32.2887L26.2711 32.2887L26.2711 32.2888L26.2711 32.2888C26.2983 32.5741 26.3255 32.8592 26.356 33.1441C26.3698 33.3565 26.5674 33.5295 26.7794 33.5187C27.0095 33.5187 27.2398 33.519 27.47 33.5194C28.0456 33.5202 28.6214 33.521 29.1969 33.5166C29.3965 33.5187 29.5499 33.3062 29.4976 33.1159C29.1235 30.8751 28.7475 28.6343 28.3715 26.3935C28.1626 25.1483 27.9537 23.9032 27.7451 22.6581C27.6794 22.2173 27.2756 21.8607 26.8286 21.8555C26.5417 21.8518 26.2543 21.8526 25.967 21.8533C25.7754 21.8538 25.5838 21.8543 25.3923 21.8535C25.3552 21.8535 25.3181 21.8533 25.2808 21.853H25.2807ZM24.631 27.1507C24.8902 26.4909 25.1493 25.831 25.42 25.1762C25.4749 25.1259 25.5498 25.1901 25.5344 25.2563L25.5692 25.6337L25.5692 25.6338L25.5692 25.634L25.5692 25.6341L25.5693 25.6343L25.5693 25.6345L25.5693 25.6346C25.6604 26.6232 25.7516 27.6121 25.8367 28.601C25.8587 28.7068 25.7597 28.795 25.6581 28.7837C25.4874 28.7832 25.3165 28.784 25.1455 28.7848C24.7893 28.7865 24.433 28.7881 24.0775 28.7781C23.9994 28.7443 24.0308 28.6666 24.0565 28.6029C24.0624 28.5883 24.068 28.5745 24.0719 28.562C24.2611 28.0929 24.4461 27.6218 24.631 27.1507ZM46.6655 23.2623C46.5426 23.2608 46.4192 23.2592 46.3001 23.2893C46.1487 23.3257 46.0322 23.4617 46.0291 23.6193C45.8844 25.1026 45.742 26.5864 45.5996 28.0703C45.5283 28.8122 45.4571 29.5541 45.3856 30.296C45.3471 30.4654 45.4836 30.6486 45.6617 30.6404C46.0734 30.6438 46.4855 30.643 46.8976 30.6421H46.8976H46.8977H46.8977H46.8977C47.0352 30.6418 47.1726 30.6415 47.31 30.6414C47.4573 30.6547 47.5953 30.5413 47.6127 30.3946C48.0479 28.251 48.4813 26.1065 48.9145 23.9624L48.9742 23.667C49.0147 23.5182 48.9839 23.2908 48.7956 23.2708C48.3945 23.2594 47.9929 23.2612 47.5911 23.2629C47.3252 23.2641 47.0592 23.2653 46.7932 23.2626C46.7508 23.2634 46.7082 23.2629 46.6655 23.2623ZM43.3083 24.9858C42.2266 24.6907 41.1002 24.5527 39.9794 24.6122C38.9849 24.6492 37.9535 24.8637 37.1422 25.4713C36.3447 26.0511 35.8387 26.9512 35.5755 27.8872C35.3286 28.774 35.2296 29.7028 35.2645 30.6224C35.303 31.427 35.518 32.2866 36.1287 32.8531C36.7722 33.454 37.6794 33.6285 38.5277 33.7029C39.9194 33.8338 41.3404 33.6336 42.6387 33.1164C42.8131 33.0538 42.9861 32.9547 43.0769 32.7859C43.1579 32.6371 43.1746 32.469 43.1913 32.3016L43.1913 32.3016C43.1986 32.2283 43.2059 32.1552 43.2185 32.0839C43.3563 30.9975 43.4937 29.911 43.6311 28.8245C43.7685 27.738 43.9059 26.6515 44.0437 25.5652C44.0617 25.4348 44.0653 25.2727 43.9431 25.1906C43.8133 25.108 43.6637 25.0734 43.5146 25.0389C43.445 25.0228 43.3756 25.0067 43.3083 24.9858ZM38.4266 28.7966C38.518 28.3635 38.6575 27.9232 38.9536 27.5834C39.2492 27.2304 39.7152 27.0154 40.178 27.0595C40.4433 27.0831 40.7056 27.1355 40.9657 27.1945L40.7213 29.098L40.4767 31.0032C40.0482 31.1258 39.5925 31.2161 39.1481 31.1356C38.7715 31.074 38.482 30.7579 38.3784 30.4012C38.2229 29.8768 38.3142 29.32 38.4266 28.7966ZM33.3559 24.7647C32.9323 24.7624 32.5088 24.76 32.0865 24.7764C31.9207 24.8124 31.8042 24.9679 31.7914 25.1331C31.7051 25.7553 31.62 26.3777 31.5349 27.0001C31.319 28.5792 31.1032 30.1583 30.8672 31.7344C30.8541 31.8149 30.8418 31.896 30.8294 31.9772C30.7574 32.4504 30.6844 32.9304 30.4562 33.3565C30.2535 33.7486 29.9214 34.0637 29.5371 34.2766C29.2755 34.4328 28.9937 34.547 28.7122 34.661L28.7122 34.661L28.712 34.6611C28.6347 34.6924 28.5574 34.7237 28.4805 34.7559C28.3532 34.7954 28.2742 34.9335 28.3353 35.0602C28.52 35.6391 28.7088 36.2164 28.8982 36.7937L28.9099 36.8246C28.9594 36.9565 29.0251 37.1315 29.1933 37.1144C29.6967 37.0282 30.1842 36.8614 30.6573 36.6716C31.4142 36.3508 32.1527 35.9023 32.6356 35.2203C33.0687 34.5881 33.3253 33.8543 33.5115 33.1164C33.7238 32.2734 33.8322 31.4116 33.9405 30.5505C33.9796 30.2395 34.0187 29.9285 34.0627 29.6187C34.2174 28.5214 34.3608 27.4225 34.5042 26.3236L34.5042 26.3234L34.5043 26.3225L34.5045 26.3214L34.5047 26.3202C34.5547 25.9364 34.6048 25.5527 34.6554 25.169C34.6728 25.0587 34.679 24.9299 34.5892 24.8473C34.5135 24.7623 34.3992 24.7632 34.2923 24.764C34.2688 24.7642 34.2456 24.7644 34.2233 24.7636C33.9343 24.768 33.6451 24.7664 33.3559 24.7647ZM45.9953 31.5553C46.3827 31.465 46.8107 31.4727 47.1653 31.6693C47.6133 31.9043 47.9042 32.4062 47.876 32.9126C47.8375 33.6424 47.3084 34.2977 46.6306 34.546C46.1472 34.7313 45.5709 34.7072 45.1347 34.4152C44.7857 34.1899 44.5461 33.7927 44.544 33.373C44.5548 32.5375 45.1696 31.7349 45.9953 31.5553ZM49.8681 37.8595C45.6561 37.7779 41.4404 37.956 37.2453 38.3332C32.6587 38.7607 28.0848 39.339 23.548 40.1405C21.3526 40.5357 19.1609 40.9647 17 41.521C17.3613 41.7186 17.722 41.9175 18.0826 42.1164C18.4694 42.3297 18.8561 42.543 19.2435 42.7546C19.6844 42.9963 20.2145 43.061 20.702 42.9419C21.0254 42.8631 21.3486 42.7833 21.6718 42.7035C22.2957 42.5494 22.9195 42.3953 23.5449 42.2486C27.6076 41.2813 31.7252 40.5654 35.8562 39.963C39.5879 39.4201 43.3371 38.9993 47.096 38.7016C50.1355 38.4635 53.1816 38.2993 56.2303 38.2593C55.8974 38.2049 55.5619 38.1743 55.2264 38.1438C55.1186 38.134 55.0109 38.1242 54.9033 38.1136C53.2288 37.9683 51.5487 37.8939 49.8681 37.8595Z" fill="#FEFEFE"/>
</svg>
