<svg width="70" height="50" viewBox="0 0 70 50" fill="none" xmlns="http://www.w3.org/2000/svg">
<rect width="70" height="50" rx="4" fill="#003D79"/>
<path fill-rule="evenodd" clip-rule="evenodd" d="M5.06316 26.481C5.06316 25.5843 5.04737 24.8318 5 24.1609H6.64337L6.72042 25.3136H6.76653C7.139 24.7045 7.82016 23.9841 9.09074 23.9841C10.0825 23.9841 10.8571 24.5616 11.1819 25.4255H11.2138C11.4776 24.9935 11.7865 24.6736 12.1425 24.4487C12.5613 24.1451 13.0417 23.9841 13.6615 23.9841C14.9161 23.9841 16.1857 24.8641 16.1857 27.3611V31.9536H14.3268V27.6496C14.3268 26.3535 13.8937 25.5843 12.9802 25.5843C12.3284 25.5843 11.8476 26.0653 11.6475 26.6257C11.6005 26.8172 11.5541 27.0574 11.5541 27.2799V31.9536H9.69453V27.4408C9.69453 26.3535 9.2769 25.5843 8.39363 25.5843C7.68089 25.5843 7.20121 26.1614 7.03037 26.7043C6.95237 26.8976 6.92111 27.121 6.92111 27.3446V31.9536H5.06316V26.481Z" fill="white"/>
<path fill-rule="evenodd" clip-rule="evenodd" d="M23.4284 30.0818C23.4284 30.7855 23.4593 31.4725 23.5369 31.9539H21.8166L21.6931 31.09H21.6461C21.1815 31.6987 20.3914 32.1301 19.4155 32.1301C17.8969 32.1301 17.0452 30.9948 17.0452 29.8099C17.0452 27.8409 18.7332 26.8496 21.5221 26.8654V26.7369C21.5221 26.2247 21.3205 25.3771 19.9883 25.3771C19.2443 25.3771 18.4694 25.6173 17.9584 25.9528L17.5861 24.6736C18.1449 24.3209 19.1218 23.9844 20.3137 23.9844C22.7316 23.9844 23.4284 25.5697 23.4284 27.2652V30.0818ZM21.5685 28.1457C20.2209 28.1134 18.9353 28.4174 18.9353 29.6018C18.9353 30.3692 19.4155 30.7219 20.0199 30.7219C20.7781 30.7219 21.3367 30.2097 21.5066 29.6498C21.5527 29.5057 21.5685 29.3451 21.5685 29.2176V28.1457Z" fill="white"/>
<path fill-rule="evenodd" clip-rule="evenodd" d="M24.7458 26.481C24.7458 25.5843 24.7288 24.8318 24.6836 24.1609H26.3554L26.4489 25.3289H26.4946C26.8204 24.7216 27.6414 23.9841 28.8961 23.9841C30.2134 23.9841 31.5766 24.8641 31.5766 27.3291V31.9536H29.6713V27.5537C29.6713 26.4328 29.2685 25.5843 28.2304 25.5843C27.4712 25.5843 26.9446 26.1446 26.7427 26.7369C26.6818 26.9134 26.6656 27.1539 26.6656 27.3764V31.9536H24.7458V26.481Z" fill="white"/>
<path fill-rule="evenodd" clip-rule="evenodd" d="M39.8385 21.0297V29.7608C39.8385 30.5608 39.869 31.4265 39.9001 31.9539H38.1958L38.1195 30.7219H38.0879C37.6384 31.5865 36.7229 32.1301 35.6241 32.1301C33.8278 32.1301 32.402 30.5461 32.402 28.1457C32.3862 25.5371 33.9664 23.9844 35.7789 23.9844C36.8166 23.9844 37.5609 24.4331 37.9011 25.0096H37.9326V21.0297H39.8385ZM37.9326 27.4084C37.9326 27.25 37.9166 27.0571 37.8868 26.8976C37.7161 26.1294 37.1115 25.5049 36.2439 25.5049C35.02 25.5049 34.3382 26.6257 34.3382 28.082C34.3382 29.5058 35.02 30.5461 36.2284 30.5461C37.0027 30.5461 37.6848 30.0022 37.8705 29.1543C37.9166 28.9775 37.9326 28.7857 37.9326 28.577V27.4084Z" fill="white"/>
<path fill-rule="evenodd" clip-rule="evenodd" d="M41.1848 31.9535H43.1078V24.1613H41.1848V31.9535Z" fill="white"/>
<path fill-rule="evenodd" clip-rule="evenodd" d="M44.4545 26.6729C44.4545 25.6172 44.4384 24.8641 44.3921 24.1607H46.0501L46.1108 25.6484H46.175C46.5462 24.5443 47.4295 24.1607 48.2348 24.1607C48.4203 24.1607 48.5286 24.1279 48.684 24.1607V25.8895C48.5286 25.8575 48.3586 25.8255 48.1261 25.8255C47.2122 25.8255 46.592 26.433 46.4218 27.3126C46.3917 27.4887 46.3604 27.6977 46.3604 27.9227V31.9539H44.4545V26.6729Z" fill="white"/>
<path fill-rule="evenodd" clip-rule="evenodd" d="M49.5671 31.9535H51.4873V24.1613H49.5671V31.9535Z" fill="white"/>
<path fill-rule="evenodd" clip-rule="evenodd" d="M49.113 14.7396C47.9595 15.4295 45.239 17.0412 44.2234 17.6414C43.6045 17.9671 42.171 18.1093 41.3602 16.98C41.3456 16.9596 40.2818 15.5866 40.2383 15.5349C40.2079 15.4983 39.5201 14.4446 37.9875 14.4116C37.7611 14.4061 36.6353 14.3999 35.5369 15.0448C34.0768 15.9064 30.6811 17.9116 30.6811 17.9116C30.6802 17.9116 30.6802 17.9134 30.6784 17.9134C29.2826 18.7383 28.1951 19.3806 28.1951 19.3806L29.48 21.0107C30.0811 21.7816 31.4366 22.378 32.6122 21.681C32.6122 21.681 36.9557 19.0829 36.9716 19.0754C38.8501 18.0112 40.2996 18.0112 41.2616 18.4072C42.1252 18.7841 42.8764 19.7232 42.8764 19.7232C42.8764 19.7232 43.8582 20.98 44.0314 21.1999C44.5901 21.9101 45.5147 21.6311 45.5147 21.6311C45.5147 21.6311 45.8573 21.591 46.3738 21.2742C46.3738 21.2742 50.5811 18.7545 50.5838 18.7536C51.9197 17.9441 53.145 17.7929 53.7712 17.8524C55.7325 18.0365 56.3419 19.4518 57.1923 20.4392C57.6931 21.02 58.145 21.3497 58.8361 21.3331C59.2902 21.3232 59.8032 21.0387 59.8789 20.9874L64.917 17.9842C64.917 17.9842 64.4 17.18 63.3413 15.9287C62.3938 14.8124 61.3874 15.3175 60.585 15.728C60.2479 15.9002 59.0264 16.7395 57.8163 17.325C56.954 17.742 55.7155 17.6166 55.0367 16.7502C54.9961 16.6975 53.898 15.3243 53.7825 15.1553C53.3393 14.5819 52.4745 14.0683 51.3663 14.0683C50.6924 14.0683 49.9277 14.2582 49.113 14.7396Z" fill="url(#paint0_linear_508_1635)"/>
<defs>
<linearGradient id="paint0_linear_508_1635" x1="28.1951" y1="21.9897" x2="64.917" y2="21.9897" gradientUnits="userSpaceOnUse">
<stop stop-color="#FFCA06"/>
<stop offset="0.330844" stop-color="#FBAA18"/>
<stop offset="0.694742" stop-color="#FFC907"/>
<stop offset="1" stop-color="#FAA619"/>
</linearGradient>
</defs>
</svg>
