<svg width="70" height="50" viewBox="0 0 70 50" fill="none" xmlns="http://www.w3.org/2000/svg">
<rect width="70" height="50" rx="4" fill="#262626"/>
<g opacity="0.01">
<rect x="15" y="12" width="39.8152" height="25.9701" fill="white"/>
</g>
<rect x="29.6576" y="16.5246" width="10.503" height="16.9179" fill="#FF5F00"/>
<path fill-rule="evenodd" clip-rule="evenodd" d="M30.7394 24.9851C30.7368 21.6843 32.2732 18.5656 34.9061 16.5276C30.4333 13.0609 24.0102 13.5659 20.1507 17.6876C16.2913 21.8093 16.2913 28.1639 20.1507 32.2855C24.0102 36.4072 30.4333 36.9122 34.9061 33.4455C32.2724 31.4069 30.7358 28.2869 30.7394 24.9851Z" fill="#EB001B"/>
<path fill-rule="evenodd" clip-rule="evenodd" d="M51.5361 31.3795V32.0825H51.4627V31.3795H51.3061V31.234H51.7027V31.3795H51.5361ZM52.3061 31.234V32.0825H52.2227V31.4401L52.0927 31.9916H52.0027L51.8727 31.4401V32.0825H51.7861V31.234H51.9061L52.0461 31.8401L52.1861 31.234H52.3061Z" fill="#F79E1B"/>
<path fill-rule="evenodd" clip-rule="evenodd" d="M52.5576 24.9851C52.5575 29.1042 50.1726 32.8618 46.4157 34.6618C42.6588 36.4618 38.1896 35.9884 34.9061 33.4425C37.5378 31.4028 39.0743 28.2845 39.0743 24.9836C39.0743 21.6826 37.5378 18.5643 34.9061 16.5246C38.1896 13.9787 42.6588 13.5053 46.4157 15.3053C50.1726 17.1054 52.5575 20.8629 52.5576 24.9821V24.9851Z" fill="#F79E1B"/>
</svg>
