<svg width="70" height="50" viewBox="0 0 70 50" fill="none" xmlns="http://www.w3.org/2000/svg">
<rect width="70" height="50" rx="4" fill="#0742A6"/>
<path fill-rule="evenodd" clip-rule="evenodd" d="M32.0223 31.744H28.4826L30.6966 18.4119H34.2361L32.0223 31.744Z" fill="white"/>
<path fill-rule="evenodd" clip-rule="evenodd" d="M44.854 18.7378C44.1559 18.468 43.0485 18.1702 41.6792 18.1702C38.1837 18.1702 35.7221 19.9855 35.707 22.5809C35.678 24.4958 37.4694 25.5594 38.8093 26.1979C40.1787 26.8503 40.6442 27.2761 40.6442 27.8577C40.6303 28.7508 39.5376 29.1625 38.5185 29.1625C37.1053 29.1625 36.3481 28.9503 35.1974 28.4534L34.7313 28.2404L34.2359 31.2331C35.0661 31.6015 36.5957 31.9283 38.1837 31.9427C41.8978 31.9427 44.3157 30.1554 44.3444 27.3896C44.3585 25.8719 43.4126 24.709 41.3732 23.7587C40.1352 23.1487 39.377 22.7374 39.377 22.1132C39.3915 21.5458 40.0183 20.9647 41.4158 20.9647C42.5665 20.9362 43.412 21.2056 44.0525 21.4751L44.3727 21.6167L44.854 18.7378Z" fill="white"/>
<path fill-rule="evenodd" clip-rule="evenodd" d="M51.19 18.4119H53.9279L56.7836 31.7438H53.5061C53.5061 31.7438 53.1854 30.212 53.0838 29.7439H48.5391C48.4077 30.0983 47.7962 31.7438 47.7962 31.7438H44.0821L49.3399 19.518C49.7042 18.6528 50.3456 18.4119 51.19 18.4119ZM50.9718 23.2907C50.9718 23.2907 49.8501 26.255 49.5586 27.0209H52.5008C52.3552 26.3543 51.6849 23.163 51.6849 23.163L51.4375 22.0143C51.3334 22.3101 51.1827 22.7168 51.0811 22.9911C51.0122 23.1771 50.9659 23.3022 50.9718 23.2907Z" fill="white"/>
<path fill-rule="evenodd" clip-rule="evenodd" d="M25.5262 18.4119L22.0596 27.5031L21.6808 25.6593C21.0399 23.5318 19.03 21.2203 16.787 20.0709L19.9622 31.7298H23.7053L29.2691 18.4119H25.5262V18.4119Z" fill="white"/>
<path fill-rule="evenodd" clip-rule="evenodd" d="M18.8407 18.4119H13.1457L13.0874 18.6812C17.5299 19.7876 20.472 22.4544 21.6808 25.6599L20.4428 19.5326C20.239 18.6811 19.6126 18.44 18.8407 18.4119Z" fill="white"/>
</svg>
