<?xml version="1.0" standalone="no"?>
<!DOCTYPE svg PUBLIC "-//W3C//DTD SVG 20010904//EN"
 "http://www.w3.org/TR/2001/REC-SVG-20010904/DTD/svg10.dtd">
<svg version="1.0" xmlns="http://www.w3.org/2000/svg"
 width="1562.000000pt" height="1562.000000pt" viewBox="0 0 1562.000000 1562.000000"
 preserveAspectRatio="xMidYMid meet">
<metadata>
Created by potrace 1.14, written by Peter Selinger 2001-2017
</metadata>
<g transform="translate(0.000000,1562.000000) scale(0.100000,-0.100000)"
fill="#000000" stroke="none">
<path d="M6509 15345 c-2 -1 -47 -6 -99 -10 -141 -10 -457 -57 -599 -89 -1179
-268 -2192 -1052 -2740 -2121 -80 -155 -134 -272 -167 -363 -14 -37 -29 -76
-34 -87 -17 -35 -80 -236 -112 -355 -42 -162 -38 -143 -83 -380 -2 -8 -6 -37
-9 -65 -4 -27 -13 -88 -21 -135 -8 -47 -17 -114 -20 -150 -8 -90 -8 -10858 0
-10906 17 -102 83 -232 159 -312 75 -81 223 -163 321 -178 99 -15 228 -7 307
20 96 32 82 23 993 621 83 54 202 132 265 173 63 41 185 121 270 177 85 55
224 146 308 201 145 94 244 162 322 221 19 14 87 78 150 142 175 176 297 363
399 606 52 123 98 308 118 480 4 33 8 2207 8 4831 l0 4771 50 -31 c28 -17 59
-36 70 -43 153 -90 486 -287 655 -388 118 -70 231 -137 250 -147 45 -26 145
-85 190 -113 19 -12 78 -47 130 -78 52 -30 298 -175 545 -322 248 -147 466
-276 485 -287 19 -11 123 -73 230 -137 107 -64 200 -118 205 -120 6 -2 26 -13
45 -26 19 -12 136 -82 260 -155 286 -169 340 -201 588 -349 112 -67 206 -121
208 -121 3 0 17 -8 32 -19 15 -10 65 -41 112 -68 74 -43 315 -186 533 -315 37
-23 66 -42 64 -44 -2 -2 -118 -42 -258 -89 -140 -48 -263 -90 -274 -95 -11 -4
-63 -23 -115 -40 -52 -18 -165 -56 -250 -86 -612 -210 -754 -259 -825 -281
-78 -25 -155 -55 -185 -74 -8 -5 -22 -12 -30 -16 -36 -15 -155 -97 -192 -131
-87 -80 -106 -99 -155 -162 -85 -110 -108 -155 -227 -462 -237 -610 -407
-1044 -415 -1063 -5 -11 -32 -78 -59 -150 -28 -71 -89 -227 -135 -345 -47
-118 -115 -291 -151 -385 -37 -93 -70 -179 -75 -190 -5 -11 -23 -58 -41 -105
-18 -47 -36 -94 -40 -105 -95 -226 -96 -228 -106 -295 -27 -177 13 -332 120
-463 109 -132 260 -207 429 -212 155 -5 167 0 727 287 226 117 518 266 800
410 514 263 633 325 795 408 94 48 287 147 430 220 143 73 301 158 350 188 88
53 275 179 285 192 3 3 23 19 45 36 49 36 61 45 155 125 127 107 259 233 375
359 526 571 887 1308 1014 2070 17 96 32 193 35 215 28 230 29 740 1 945 -3
19 -7 55 -10 80 -13 117 -58 345 -96 485 -11 44 -22 87 -24 96 -2 10 -29 93
-60 185 -123 363 -278 677 -492 994 -94 140 -209 285 -222 282 -7 -1 -10 2 -6
8 7 12 -47 78 -169 207 -76 81 -216 201 -341 294 -33 24 -64 48 -70 52 -74 58
-479 330 -690 462 -309 195 -587 365 -596 365 -5 0 -9 3 -9 8 0 4 -9 12 -20
17 -21 10 -497 303 -587 361 -29 19 -57 34 -63 34 -5 0 -10 5 -10 10 0 6 -4
10 -9 10 -7 0 -161 92 -351 209 -135 84 -377 226 -493 290 -156 86 -177 96
-472 231 -69 31 -302 116 -410 148 -129 39 -372 93 -477 106 -21 3 -53 8 -70
11 -18 3 -53 8 -78 11 -57 5 -586 14 -591 9z"/>
</g>
</svg>
