<svg width="70" height="50" viewBox="0 0 70 50" fill="none" xmlns="http://www.w3.org/2000/svg">
<rect width="70" height="50" rx="4" fill="white"/>
<path fill-rule="evenodd" clip-rule="evenodd" d="M11.2866 19.1474C11.9505 19.0392 12.6316 19.0517 13.2986 19.1184C13.917 19.2461 14.5409 19.3888 15.1084 19.6748C16.2566 20.2227 17.234 21.1107 17.8853 22.2041C18.4253 23.2144 18.7968 24.3478 18.7412 25.5054C18.7569 27.8818 17.2512 30.1462 15.1185 31.1565C13.736 31.8141 12.1276 31.9042 10.6502 31.5437C9.65087 31.2364 8.68682 30.7395 7.95868 29.9761C7.26503 29.3326 6.74147 28.5128 6.40914 27.6302C5.97571 26.5447 5.93652 25.3377 6.12071 24.1941C6.45774 22.4957 7.50722 20.9383 8.99249 20.0354C9.68379 19.58 10.4785 19.3096 11.2866 19.1474ZM10.3994 22.1971C9.89933 22.248 9.35303 22.4236 9.07636 22.875C8.77069 23.3074 8.7388 23.8483 8.7085 24.3621C8.70602 24.4043 8.70354 24.4463 8.70092 24.4881C8.69469 24.6177 8.68312 24.7471 8.67155 24.8766L8.67155 24.8766C8.6482 25.1378 8.62484 25.3991 8.64528 25.6622C8.66051 25.8398 8.67126 26.018 8.68201 26.1963V26.1963C8.70888 26.6417 8.73576 27.0873 8.8326 27.5244C8.95252 28.0754 9.44865 28.5026 9.99574 28.6029C11.0153 28.7867 12.054 28.7706 13.0865 28.7545C13.181 28.7531 13.2755 28.7516 13.3699 28.7503C13.7924 28.7268 14.2148 28.6836 14.6326 28.617C15.2581 28.5355 15.8106 28.0261 15.9133 27.399C16.0928 26.6301 16.1249 25.8369 16.0716 25.0524C15.9713 24.5492 15.6155 24.0954 15.1319 23.9112C14.914 23.8059 14.6723 23.8066 14.4353 23.8072C14.3935 23.8073 14.3518 23.8074 14.3105 23.8069C13.8442 23.8075 13.3779 23.8073 12.9117 23.807H12.9116C12.0957 23.8065 11.2799 23.8061 10.4644 23.8101C10.3707 23.8118 10.2832 23.7797 10.1965 23.748C10.1643 23.7362 10.1322 23.7244 10.1 23.7145C10.0976 23.5389 10.1039 23.2763 10.3398 23.2716C10.9541 23.2578 11.569 23.2618 12.1838 23.2659H12.1839C12.9936 23.2713 13.8033 23.2767 14.6114 23.2411C14.5237 22.8335 14.2752 22.4079 13.8472 22.295C13.4608 22.1916 13.0611 22.1391 12.6637 22.1022C12.5504 22.1008 12.4369 22.0986 12.3233 22.0965H12.3233C11.6795 22.0842 11.0329 22.0718 10.3994 22.1971ZM14.776 25.6206C14.5699 25.565 14.323 25.6465 14.2509 25.8589C14.2056 26.1034 14.2782 26.339 14.3502 26.573C14.3805 26.6713 14.4106 26.7693 14.432 26.8676C14.4555 26.8813 14.4907 26.9017 14.5259 26.9221C14.5612 26.9425 14.5965 26.9628 14.6201 26.9766C14.7008 26.9295 14.7831 26.8872 14.8685 26.8504C14.8777 26.6435 14.9276 26.4446 14.9774 26.2457C14.9995 26.1575 15.0216 26.0693 15.0402 25.9804C15.0018 25.8338 14.9054 25.6998 14.776 25.6206Z" fill="#01ACD7"/>
<path fill-rule="evenodd" clip-rule="evenodd" d="M26.7937 21.1005C26.1894 20.8638 25.5185 20.8905 24.8852 20.9689C23.5152 21.1805 22.3128 22.2261 21.9068 23.5514C21.7226 24.0766 21.7266 24.6432 21.7752 25.1911C21.939 26.5925 22.9932 27.8231 24.3311 28.2518C25.2795 28.5386 26.3736 28.5481 27.2491 28.0347C27.3634 27.9714 27.4673 27.8933 27.5712 27.8151L27.5712 27.8151L27.5712 27.8151L27.5712 27.8151L27.5712 27.8151C27.6681 27.7422 27.7651 27.6692 27.8706 27.6083L27.8723 27.6811C27.8852 28.2588 27.8999 28.9121 27.4615 29.3483C27.1676 29.7073 26.7232 29.8962 26.2741 29.9651C25.303 30.1431 24.2762 29.8115 23.5544 29.1469C23.3939 29.3103 23.2257 29.4665 23.0576 29.6226C22.7857 29.8752 22.5137 30.1277 22.2744 30.4111C23.03 31.1259 23.987 31.6416 25.0247 31.7788C26.0389 31.9066 27.13 31.8446 28.0337 31.3234C28.8002 30.8978 29.4037 30.1713 29.6404 29.324C29.7873 28.9018 29.7853 28.4508 29.7834 28.0096V28.0096L29.7831 27.9351C29.7823 25.5987 29.7823 23.263 29.7831 20.9265C29.4158 20.922 29.0485 20.9222 28.6813 20.9224C28.416 20.9225 28.1508 20.9227 27.8855 20.9211C27.8857 20.9852 27.8861 21.0494 27.8864 21.1136V21.1136C27.8876 21.3222 27.8888 21.5308 27.884 21.7393C27.5571 21.4721 27.1958 21.2361 26.7937 21.1005ZM24.3867 23.1368C24.701 22.8578 25.118 22.7512 25.5248 22.6908C26.3344 22.5678 27.2452 22.9385 27.6598 23.6635C27.827 23.9573 27.8201 24.2893 27.8132 24.6182V24.6182C27.8108 24.7333 27.8084 24.8481 27.8134 24.9607C27.8816 25.652 27.3432 26.2618 26.7263 26.4969C25.9809 26.7775 25.0616 26.7963 24.411 26.2782C23.436 25.5469 23.4164 23.8783 24.3867 23.1368ZM43.446 20.9226C42.6356 20.9171 41.7906 21.1593 41.2067 21.744C41.2016 21.6693 41.1967 21.5946 41.1918 21.5201C41.1835 21.3914 41.1751 21.2631 41.1652 21.135C40.5272 21.1272 39.8892 21.1248 39.2512 21.135C39.2521 23.0694 39.252 25.0038 39.2518 26.9382C39.2517 28.3889 39.2516 29.8397 39.252 31.2905C39.7003 31.3194 40.1497 31.3169 40.5989 31.3144H40.5989C40.8079 31.3132 41.0168 31.312 41.2255 31.314C41.2401 30.4178 41.2369 29.5211 41.2336 28.6243C41.2325 28.318 41.2314 28.0118 41.231 27.7055C42.6387 28.8239 44.8795 28.7009 46.1454 27.4178C47.5232 26.036 47.6024 23.5734 46.2755 22.1312C45.5771 21.3286 44.5049 20.885 43.446 20.9226ZM41.3235 23.832C41.5296 23.2121 42.1598 22.8421 42.7719 22.7206C43.4029 22.5929 44.1083 22.752 44.5958 23.1815C45.4219 23.9324 45.4282 25.3753 44.6491 26.1614C43.8677 26.9178 42.4851 26.9037 41.7084 26.1473C41.3776 25.855 41.2044 25.3972 41.2334 24.9599C41.2399 24.8446 41.2368 24.7276 41.2337 24.6105C41.2267 24.3455 41.2197 24.0799 41.3235 23.832ZM33.528 21.019C34.6418 20.7949 35.8605 20.9297 36.8301 21.5496C37.5676 21.9948 38.1288 22.7167 38.3796 23.5405C38.7237 24.6229 38.5693 25.8612 37.925 26.8034C37.2847 27.7525 36.1913 28.3341 35.0626 28.443C34.3674 28.4901 33.6487 28.4665 32.9911 28.2134C31.9016 27.8474 30.9878 26.9484 30.6664 25.8377C30.3215 24.7969 30.4814 23.6055 31.0724 22.6838C31.6195 21.8216 32.5365 21.233 33.528 21.019ZM33.9944 22.7308C33.7169 22.81 33.4575 22.9479 33.2302 23.1243C32.4432 23.7442 32.2512 24.9701 32.8116 25.8001C33.452 26.8559 35.1042 27.0644 35.9711 26.1802C36.3951 25.7907 36.5965 25.2091 36.5401 24.6393C36.5879 23.3759 35.1865 22.3577 33.9944 22.7308ZM52.1883 20.9696C51.0479 20.8199 49.8127 20.9791 48.8666 21.6758C48.3204 22.1101 47.8532 22.7073 47.7607 23.4174C48.0331 23.464 48.3032 23.523 48.5733 23.5819L48.5733 23.5819C48.9252 23.6586 49.2771 23.7353 49.634 23.785C49.7884 23.165 50.3261 22.672 50.957 22.5701C51.3654 22.4996 51.7902 22.5208 52.1875 22.6415C52.5348 22.7543 52.7989 23.1345 52.6468 23.4966C52.3636 23.7548 51.9783 23.8329 51.6113 23.9073C51.5639 23.9169 51.5169 23.9264 51.4704 23.9363L51.2793 23.9634C50.3476 24.095 49.379 24.2318 48.5861 24.7702C47.6055 25.456 47.6016 27.0698 48.5085 27.8191C49.257 28.4626 50.3112 28.5363 51.2501 28.4117C51.8999 28.2902 52.5543 28.0088 52.969 27.4735C52.9713 27.6056 52.9713 27.7376 52.9713 27.8698C52.9713 28.002 52.9713 28.1342 52.9737 28.2667C53.1167 28.2665 53.2597 28.266 53.4028 28.2656L53.403 28.2656C53.8567 28.2641 54.3108 28.2627 54.7654 28.2698C54.7672 27.3843 54.7669 26.4991 54.7667 25.614C54.7665 24.9502 54.7663 24.2865 54.767 23.6228C54.774 23.0843 54.5773 22.5599 54.281 22.1163C53.7998 21.4407 52.9831 21.0998 52.1883 20.9696ZM49.721 26.3339C49.6175 26.0885 49.8174 25.8464 50.0172 25.7256C50.4203 25.5035 50.874 25.4206 51.3269 25.3379C51.8726 25.2382 52.417 25.1387 52.8702 24.7961C52.8659 24.9037 52.8694 25.0163 52.8728 25.1305V25.1306C52.8846 25.5163 52.8969 25.9198 52.6139 26.2077C52.0668 26.7532 51.2337 26.8535 50.4977 26.8065C50.192 26.7885 49.7899 26.6826 49.721 26.3339ZM55.5543 21.1296C55.3436 21.1299 55.1329 21.1303 54.9222 21.1303C55.4782 22.2921 56.0465 23.448 56.6149 24.604C57.1481 25.6887 57.6814 26.7734 58.2046 27.863C57.9475 28.4285 57.6679 28.9835 57.3883 29.5386C57.0927 30.1253 56.7972 30.712 56.5281 31.3109C56.7546 31.3099 56.9811 31.3117 57.2077 31.3134C57.7115 31.3173 58.2155 31.3212 58.7188 31.2952C60.3702 27.9108 62.0201 24.5265 63.6684 21.1405C62.9277 21.1217 62.1878 21.1248 61.4479 21.1374C60.7378 22.6963 60.0191 24.2521 59.2965 25.8048C59.0834 25.3447 58.868 24.8857 58.6527 24.4266C58.3009 23.6767 57.9492 22.9268 57.6074 22.1728C57.5527 22.05 57.4923 21.9297 57.432 21.8093C57.3214 21.5886 57.2109 21.368 57.1348 21.1327C56.608 21.1276 56.0812 21.1286 55.5543 21.1296Z" fill="#010101"/>
</svg>
