<svg width="70" height="50" viewBox="0 0 70 50" fill="none" xmlns="http://www.w3.org/2000/svg">
<rect width="70" height="50" rx="4" fill="#4C3494"/>
<path fill-rule="evenodd" clip-rule="evenodd" d="M57.1851 18.9601C55.5407 17.5078 53.2794 16.8291 51.1043 17.0366C50.5609 17.0862 50.0217 17.1829 49.4985 17.3377C47.5817 17.8891 45.9005 19.2025 44.8969 20.9246C43.5474 23.1957 43.3859 26.1107 44.4275 28.5323C45.201 30.3567 46.6796 31.8708 48.4923 32.6737C50.5511 33.5856 52.9874 33.6131 55.0646 32.7435C56.1233 32.2979 57.0835 31.6174 57.8534 30.7649C59.2592 29.2294 60.007 27.1339 59.9593 25.0593C59.9471 22.7582 58.9373 20.4644 57.1851 18.9601ZM47.7677 21.8408C48.5407 20.6884 49.8155 19.8848 51.1955 19.7135C52.2898 19.5648 53.4373 19.7826 54.3852 20.3561C55.2959 20.8965 56.0076 21.7441 56.433 22.7104C57.2733 24.6382 57.0848 27.0274 55.8161 28.7276C55.2145 29.5329 54.3699 30.1608 53.4109 30.4705C52.2065 30.8628 50.8504 30.7783 49.7096 30.2257C48.81 29.793 48.0578 29.0758 47.5591 28.2129C46.444 26.2753 46.5083 23.6963 47.7677 21.8408ZM21.843 17.8854C20.3589 17.1162 18.6319 16.8591 16.9807 17.0782C15.3889 17.2832 13.8589 17.9736 12.6717 19.0568C11.4538 20.1462 10.5988 21.6241 10.2292 23.2135C9.78304 25.1003 9.98868 27.1437 10.8424 28.8885C11.6264 30.5183 12.9887 31.8628 14.6307 32.6223C16.2567 33.3787 18.1313 33.5599 19.8816 33.1921C21.5633 32.842 23.1166 31.9191 24.2359 30.6168C25.3032 29.3867 25.9679 27.8242 26.1545 26.2092C26.3351 24.7031 26.1117 23.148 25.4979 21.7594C24.7702 20.1015 23.4599 18.7031 21.843 17.8854ZM15.2414 20.5831C15.8963 20.1101 16.6729 19.8126 17.4728 19.7098C18.4305 19.5862 19.4275 19.738 20.2934 20.1706C21.313 20.6682 22.1313 21.5391 22.6129 22.5623C23.16 23.7031 23.3087 25.0183 23.1025 26.2618C22.9122 27.3965 22.3938 28.4913 21.5652 29.2992C20.8528 30.0183 19.9054 30.4974 18.9061 30.6523C17.6821 30.8451 16.3828 30.5801 15.3571 29.8775C14.2977 29.1706 13.5542 28.0427 13.2329 26.8181C12.9158 25.6088 12.9556 24.3016 13.3699 23.1205C13.7225 22.1143 14.3699 21.2037 15.2414 20.5831ZM26.8932 17.4436L26.8926 17.4436C26.8922 18.0278 26.8923 18.6123 26.8925 19.1969C26.8925 19.4892 26.8926 19.7816 26.8926 20.0739C27.2891 20.0749 27.6854 20.0747 28.0817 20.0746C28.2139 20.0746 28.3461 20.0746 28.4783 20.0746C29.459 22.3306 30.4384 24.5872 31.4179 26.8438C32.129 28.4823 32.8401 30.1207 33.5517 31.7588C33.8828 32.5189 34.5786 33.1119 35.3883 33.2998C35.6829 33.3768 35.9867 33.3737 36.2895 33.3706C36.3836 33.3697 36.4777 33.3687 36.5713 33.3701C37.5004 31.1816 38.4326 28.9944 39.3647 26.8072C40.476 24.1999 41.5871 21.5926 42.6931 18.9834C42.7213 18.6659 42.717 18.3454 42.7127 18.0248C42.71 17.8306 42.7074 17.6365 42.7121 17.443H37.5725V17.4436C37.5719 18.321 37.5713 19.1978 37.5725 20.0746C37.7962 20.0748 38.02 20.0747 38.2437 20.0747C38.542 20.0746 38.8403 20.0745 39.1386 20.0752C38.7295 21.0775 38.3213 22.0802 37.9132 23.083C37.1217 25.0276 36.3302 26.9722 35.5315 28.9136C34.9095 27.4408 34.2877 25.9679 33.6658 24.4951C33.0438 23.0218 32.4218 21.5485 31.7996 20.0752C32.0627 20.0742 32.326 20.0744 32.5894 20.0746C32.8528 20.0747 33.1163 20.0749 33.3797 20.0739V17.4436C31.2178 17.4424 29.0558 17.443 26.8932 17.4436Z" fill="white"/>
</svg>
