<svg width="70" height="50" viewBox="0 0 70 50" fill="none" xmlns="http://www.w3.org/2000/svg">
<rect width="70" height="50" rx="4" fill="white"/>
<path d="M25.3529 16.9181L39.7945 16.9181L39.7945 26.7144L33.736 26.7144L39.7945 32.9837L34.6478 32.9837L28.7061 26.7144L28.7061 32.9837L25.3529 32.9837L25.3529 23.0249L35.9414 23.0249L35.9414 20.6411L25.3529 20.6411L25.3529 16.9181Z" fill="black"/>
<path d="M41.2943 32.9837L44.8238 32.9837L44.8238 16.8856L41.2943 16.8856L41.2943 32.9837Z" fill="black"/>
<path d="M13.0294 29.098L13.0294 16.9181L10.2647 16.9181C9.76468 16.9181 9.38227 17.343 9.38227 17.8647C9.38228 20.7392 9.3529 29.196 9.3529 32.0041C9.3529 32.5266 9.73532 32.9837 10.2059 32.9837C12.1177 32.9837 17.6176 32.9837 18.4114 32.9837L18.4114 29.098L13.0294 29.098Z" fill="black"/>
<path d="M20.2357 37C20.5597 37 23.0301 37 23.8539 37C23.8539 37 23.8539 29.0652 23.8539 28.9347C22.6771 28.9347 21.4425 28.9347 20.2357 28.9347C20.2357 31.6122 20.2357 34.2897 20.2357 37V37Z" fill="black"/>
<path d="M14.7943 16.9181C14.7943 16.9839 14.7943 20.9343 14.7943 20.9343C16.412 20.9343 18.4705 20.9343 20.2351 20.9343C20.2351 23.7106 20.2351 26.943 20.2351 26.943C21.0589 26.943 23.5294 26.943 23.8533 26.943L23.8533 17.8982C23.8533 17.3753 23.4703 16.9505 23.0005 16.9181C21.2359 16.9181 17.0589 16.9181 14.7943 16.9181V16.9181Z" fill="black"/>
<path d="M14.7943 22.8933C14.7943 24.2324 14.7943 25.5715 14.7943 26.9753C15.0884 26.9753 15.412 26.9753 15.7061 26.9753C16.53 26.9753 17.5588 26.9753 18.3826 26.9753C18.3826 26.9753 18.3826 22.9591 18.3826 22.8933C17.2058 22.8933 16.0002 22.8933 14.7943 22.8933ZM17.3238 25.7343C16.9709 25.7343 16.559 25.7343 16.2351 25.7343C16.1179 25.7343 16.0002 25.7343 15.8532 25.7343C15.8532 25.179 15.8532 24.6572 15.8532 24.1019C16.353 24.1019 16.8239 24.1019 17.3238 24.1019C17.3238 24.1343 17.3238 25.7343 17.3238 25.7343Z" fill="black"/>
<path d="M62.1474 28.9347L62.1474 34.9429C62.1474 35.4653 61.7355 35.8899 61.2656 35.8899L55.8539 35.8899L55.8539 36.8694L62.1474 36.8694L62.1774 36.8694C62.6183 36.8694 63.0002 36.4449 63.0002 35.9224L63.0002 35.8899L63.0002 28.9347L62.1474 28.9347Z" fill="black"/>
<path d="M7.88276 20.902L7.88249 14.8933C7.88247 14.3715 8.23537 13.979 8.70596 13.979L14.1178 13.979C14.1472 13.979 14.1472 13.9467 14.1472 13.9467L14.1471 13.0324C14.1471 13.0324 14.1471 13.0001 14.1178 13.0001L7.88241 13.0001C7.38243 13.0001 7.00003 13.4249 7.00006 13.979L7.00036 20.902C7.00037 20.9343 7.02976 20.9343 7.02976 20.9343L7.85337 20.9343C7.85337 20.9343 7.88276 20.9343 7.88276 20.902V20.902Z" fill="black"/>
<path d="M60.6175 20.902L60.6175 16.9181L46.3529 16.9181L46.3529 22.8933L46.3529 26.9106L55.8537 26.9106L55.8537 28.9021L46.3529 28.9021L46.3529 32.9184L60.6176 32.9184L60.6175 22.9268L51.1178 22.9268L51.1178 20.902L60.6175 20.902Z" fill="black"/>
</svg>
