<svg width="70" height="50" viewBox="0 0 70 50" fill="none" xmlns="http://www.w3.org/2000/svg">
<rect width="70" height="50" rx="4" fill="#F0592C"/>
<path fill-rule="evenodd" clip-rule="evenodd" d="M31.6604 13.7126L30.8362 13.7128C30.0117 13.7132 29.1872 13.7136 28.3621 13.7105L28.326 13.711C28.0472 13.7145 27.7261 13.7186 27.5344 13.9514C27.3405 14.1613 27.357 14.4598 27.3718 14.7283L27.3752 14.7913C27.4999 16.4537 27.6209 18.1164 27.742 19.7793L27.742 19.7794C27.8262 20.935 27.9103 22.0906 27.9957 23.2463C28.0046 23.3629 28.0113 23.481 28.018 23.5998C28.0518 24.1996 28.0865 24.8161 28.4213 25.3323C28.7213 25.8343 29.3061 26.116 29.8837 26.0966C31.4684 26.0981 33.0534 26.0977 34.6385 26.0973H34.6386C36.4219 26.0969 38.2054 26.0965 39.9889 26.0987C40.4053 26.1099 40.8349 26.0129 41.1656 25.7486C41.6728 25.3486 41.9003 24.6934 41.9514 24.0678L41.9602 23.9466L41.9603 23.9458C42.1624 21.1667 42.3647 18.3867 42.5719 15.6077C42.5782 15.4693 42.5899 15.3307 42.6017 15.192L42.6017 15.192L42.6017 15.1919C42.6278 14.8838 42.6539 14.5753 42.6208 14.2677C42.579 13.9381 42.2575 13.7003 41.931 13.7177C41.216 13.7092 40.5007 13.7108 39.7854 13.7124H39.7853C39.3 13.7135 38.8147 13.7146 38.3295 13.7126C38.255 12.2767 37.8529 10.7449 36.7916 9.71414C35.7946 8.72322 34.0148 8.7773 33.0524 9.79068C32.0625 10.8306 31.7298 12.3195 31.6604 13.7126ZM32.7911 17.5273C32.9208 16.6782 33.6535 15.9945 34.4903 15.8526C35.3731 15.6975 36.3375 15.873 37.0804 16.3843C37.2804 16.4914 37.2549 16.7935 37.0437 16.8741C36.8629 16.8494 36.7012 16.768 36.5391 16.6865C36.4275 16.6304 36.3158 16.5742 36.1977 16.5364C35.4904 16.2659 34.6261 16.1679 33.9719 16.6251C33.4259 16.9844 33.134 17.8028 33.5708 18.3559C34.0128 18.9281 34.6863 19.1496 35.3525 19.3688L35.3525 19.3688C35.6216 19.4573 35.8895 19.5454 36.1405 19.6561C36.7222 19.902 37.3059 20.2786 37.5703 20.8766C37.8948 21.6635 37.6978 22.685 36.9916 23.2014C36.2477 23.7474 35.2516 23.827 34.3699 23.6382C33.6678 23.4769 32.9504 23.1912 32.4687 22.634C32.4918 22.6122 32.516 22.5853 32.5413 22.5572C32.6497 22.4367 32.7783 22.2937 32.933 22.4319C33.6229 22.9054 34.4424 23.2228 35.2884 23.1932C35.8507 23.1545 36.4436 22.9708 36.8314 22.5411C37.1906 22.1482 37.2549 21.5237 36.9804 21.0665C36.6395 20.496 36.0027 20.197 35.4006 19.9816C35.3285 19.9584 35.2559 19.9355 35.1831 19.9125C34.5459 19.7111 33.8913 19.5043 33.3912 19.0428C32.9626 18.6733 32.7034 18.0957 32.7911 17.5273ZM35.4006 9.91315C34.6414 9.71823 33.8331 10.1183 33.4035 10.7469C32.8003 11.6082 32.6166 12.6818 32.5401 13.7095C34.177 13.7146 35.8139 13.7146 37.4498 13.7095C37.36 12.7798 37.1855 11.8338 36.7242 11.0112C36.4375 10.502 35.9844 10.0489 35.4006 9.91315Z" fill="white"/>
<path fill-rule="evenodd" clip-rule="evenodd" d="M8.11613 33.0379C8.62724 33.5259 9.28017 33.7598 9.93247 33.9934C10.5895 34.2287 11.2459 34.4637 11.756 34.9581C12.2198 35.3495 12.2717 36.0637 12.0083 36.5832C11.667 37.1639 10.949 37.3846 10.3127 37.4106C9.26078 37.4143 8.34803 36.8244 7.51134 36.2548C7.48837 36.274 7.46382 36.2939 7.43836 36.3145L7.43834 36.3145L7.43834 36.3145L7.43823 36.3146L7.43807 36.3148L7.43803 36.3148C7.16731 36.5344 6.79435 36.8369 7.13844 37.1657C8.50757 38.4217 10.8618 38.943 12.396 37.6945C13.4925 36.8132 13.4461 35.0304 12.3868 34.1399C11.8766 33.6075 11.2041 33.3744 10.531 33.1411C9.97044 32.9468 9.40953 32.7524 8.94169 32.3849C8.16807 31.8506 8.52612 30.5019 9.40734 30.3034C10.3034 30.0028 11.2254 30.3331 12.0306 30.7301C12.5704 31.0325 12.9174 30.0771 12.4313 29.8303C11.3831 29.1346 9.93978 28.9194 8.77843 29.4519C7.45382 30.0195 7.00487 32.0547 8.11613 33.0379ZM13.9637 37.303L13.9647 37.3973C13.9673 37.671 13.97 37.9481 14.0249 38.2176C14.229 38.4773 14.7354 38.5089 14.9043 38.1972C15.0449 37.6977 15.0161 37.1552 14.9873 36.6139V36.6139V36.6139C14.9433 35.7841 14.8994 34.9575 15.4664 34.2939C16.0971 33.4572 17.7186 33.524 18.0636 34.587C18.1777 35.214 18.1606 35.8513 18.1435 36.4889C18.128 37.0642 18.1125 37.6398 18.1935 38.2083C18.4681 38.5942 19.2417 38.418 19.1545 37.8967C19.1638 36.8949 19.1712 35.8931 19.1638 34.8913C19.173 33.6835 18.0043 32.6558 16.8188 32.7003C16.1454 32.6354 15.5406 32.9619 14.9803 33.2884C14.9797 32.9085 14.984 32.5283 14.9883 32.1479C14.9974 31.3282 15.0066 30.5079 14.9673 29.6893C14.9803 29.3795 14.7354 29.0957 14.4071 29.1773C14.0138 29.142 13.9674 29.6003 13.9692 29.8897C13.966 30.9604 13.9673 32.0311 13.9687 33.1018V33.1021C13.9704 34.5024 13.9721 35.9027 13.9637 37.303ZM45.5278 38.622C45.7377 38.6192 45.9476 38.6169 46.1577 38.6146C46.3655 38.6123 46.5735 38.61 46.782 38.6072C46.8791 37.9845 46.9888 37.3648 47.0985 36.7452L47.0985 36.7449C47.1627 36.3825 47.2268 36.0202 47.2884 35.6575C47.4492 35.6548 47.6102 35.6543 47.7713 35.6537C48.2867 35.652 48.8026 35.6502 49.3143 35.5795C50.7316 35.3625 51.9728 33.9785 51.739 32.5073C51.611 31.5946 50.7391 30.9564 49.8541 30.9156C49.32 30.8954 48.7859 30.8994 48.2518 30.9033C47.8027 30.9066 47.3535 30.9099 46.9044 30.8989C46.6402 32.3586 46.3814 33.819 46.1226 35.2795L46.1217 35.2845C45.9246 36.3969 45.7274 37.5095 45.5278 38.622ZM47.4999 34.4683C47.5859 34.0136 47.6677 33.5584 47.7494 33.1036C47.8104 32.7641 47.8714 32.4248 47.934 32.0862C48.1485 32.0944 48.3658 32.0878 48.5835 32.0812C49.055 32.0669 49.5285 32.0525 49.9803 32.1883C50.6982 32.5073 50.5962 33.5574 50.0842 34.0249C49.5778 34.5258 48.8805 34.4987 48.204 34.4723C47.9635 34.4629 47.7257 34.4537 47.4999 34.4683ZM20.7704 37.4403C20.032 36.5721 19.8372 35.2419 20.4216 34.2401C20.8149 33.5351 21.5273 33.0509 22.2935 32.8283C23.7312 32.409 25.3582 33.3793 25.7831 34.7911C25.9872 35.5907 25.9 36.4941 25.4176 37.1806C24.4418 38.7204 21.9132 38.8558 20.7704 37.4403ZM24.7739 36.1862C25.31 34.8987 23.9186 33.4628 22.607 33.832C21.3084 34.0008 20.6015 35.7224 21.505 36.7093C22.3399 37.8707 24.3379 37.5368 24.7739 36.1862ZM27.4045 32.7986C27.0594 32.6539 26.7033 33.0658 26.7682 33.4034C26.7548 34.5867 26.7572 35.7699 26.7596 36.9534V36.9535V36.9537V36.9538V36.9539V36.954V36.9544C26.7619 38.0641 26.7641 39.174 26.7533 40.2843C26.7583 40.3678 26.758 40.4541 26.7577 40.541C26.7566 40.8094 26.7555 41.0851 26.911 41.3121C27.2004 41.4289 27.7681 41.4735 27.7718 41.0356C27.8225 40.2901 27.8101 39.5419 27.7976 38.7941C27.7919 38.446 27.7861 38.0978 27.7867 37.7501C29.1428 38.815 31.434 38.6146 32.3041 37.0303C33.1927 35.6315 32.4914 33.613 30.9702 33.0027C29.9554 32.474 28.7236 32.7708 27.8646 33.4628C27.8291 33.3976 27.8041 33.3174 27.7785 33.2354C27.7145 33.0303 27.6471 32.8145 27.4045 32.7986ZM28.9814 33.9525C29.8626 33.5815 31.011 33.8728 31.4525 34.7633C32.0425 35.6612 31.4637 36.9208 30.5064 37.2752C29.5473 37.7334 28.3117 37.1546 27.9926 36.1565C27.6327 35.305 28.1781 34.3106 28.9814 33.9525ZM38.4169 37.9468C37.3186 38.6295 35.7937 38.7222 34.6861 38.0043C33.1816 36.88 33.2391 34.2642 34.7715 33.1919C35.9829 32.3274 37.9772 32.7392 38.5765 34.151C38.7842 34.6612 38.9197 35.2586 38.7193 35.7929C38.5477 35.9132 38.3377 35.9186 38.1345 35.9239C38.0807 35.9253 38.0274 35.9267 37.9754 35.9302C37.5829 35.9321 37.1901 35.9302 36.7974 35.9284L36.7971 35.9284C36.0575 35.9249 35.3176 35.9213 34.5785 35.9432C34.6099 36.0209 34.6398 36.1017 34.6701 36.1835L34.6701 36.1835L34.6701 36.1835L34.6701 36.1835L34.6701 36.1836C34.8277 36.6096 34.9958 37.064 35.4393 37.2585C36.2556 37.6407 37.1943 37.4125 37.9921 37.0915C38.4651 36.8262 38.8826 37.7111 38.4169 37.9468ZM37.0738 33.9525C36.6155 33.7633 36.0886 33.7596 35.6156 33.8913C35.206 34.0054 34.9953 34.383 34.7993 34.7343C34.7627 34.7999 34.7266 34.8646 34.6898 34.9265C35.725 34.9432 36.7621 34.9414 37.7991 34.9265C37.7629 34.8584 37.7286 34.7871 37.6939 34.7152C37.5472 34.4111 37.3948 34.0951 37.0738 33.9525ZM40.7433 37.8985C41.8249 38.7389 43.4259 38.6443 44.5706 37.9783C45.0789 37.7167 44.6281 36.7483 44.1142 37.1138C43.361 37.4255 42.4816 37.6073 41.7006 37.2937C41.2047 37.1002 41.0123 36.5975 40.8349 36.134C40.8099 36.0686 40.7852 36.0041 40.76 35.9413C41.5202 35.921 42.2804 35.925 43.0405 35.9289C43.3935 35.9308 43.7464 35.9326 44.0993 35.932C44.158 35.9282 44.2185 35.9271 44.2798 35.9261C44.513 35.922 44.7557 35.9178 44.9379 35.7576C45.1457 34.9822 44.8693 34.1306 44.3702 33.524C43.4649 32.5964 41.8546 32.4702 40.8342 33.2865C39.4818 34.3867 39.4206 36.7483 40.7433 37.8985ZM40.8862 34.9302C41.144 34.2957 41.6746 33.7095 42.4278 33.8023C43.1773 33.7039 43.7895 34.229 43.9806 34.9284C42.9491 34.9414 41.9176 34.9395 40.8862 34.9302ZM55.0097 34.1974C54.2398 33.691 53.2899 34.1139 52.6592 34.6445L51.919 33.9934C52.5367 33.4498 53.2788 33.0045 54.1211 32.9526C54.8427 32.9099 55.6924 32.9823 56.1989 33.5667C56.5773 33.96 56.6386 34.5555 56.5514 35.0731C56.4115 35.9583 56.2498 36.8394 56.0881 37.7209L56.088 37.7214L56.0878 37.7223L56.0877 37.7233C56.0329 38.0215 55.9782 38.3198 55.9243 38.6183C55.5236 38.6165 55.1229 38.6146 54.724 38.6146L54.865 37.969C54.0914 38.7463 52.802 39.1155 51.8299 38.4885C50.9135 37.8726 51.112 36.4608 51.8726 35.8003C52.8095 34.9209 54.225 34.9877 55.377 35.3272C55.364 35.2366 55.3594 35.1384 55.3547 35.0383C55.3395 34.7123 55.3234 34.3663 55.0097 34.1974ZM55.2026 36.3105C54.481 36.0211 53.5886 35.8244 52.8948 36.2864C52.4236 36.5851 52.2455 37.4032 52.8336 37.6815C53.8558 38.1267 54.9114 37.2752 55.2026 36.3105ZM57.6427 34.7828C57.4979 34.2317 57.3531 33.6807 57.2062 33.1307H58.5624C58.7045 33.6983 58.8399 34.2674 58.9753 34.8367C59.1334 35.5011 59.2914 36.1657 59.4603 36.8281C59.9667 36.0571 60.4265 35.2586 60.8862 34.4601C61.1422 34.0154 61.3983 33.5707 61.6624 33.1307C62.1058 33.1307 62.5492 33.1325 62.9944 33.1344L63 33.1344C62.4108 34.0864 61.8255 35.0408 61.2403 35.9953C60.2242 37.6524 59.208 39.3095 58.1709 40.954C57.8901 40.9503 57.6093 40.9482 57.3285 40.9462C57.1882 40.9452 57.0479 40.9441 56.9076 40.9429C57.0983 40.64 57.2912 40.3384 57.4841 40.0368C57.856 39.4553 58.228 38.8738 58.5847 38.2825C58.2569 37.1203 57.9497 35.9512 57.6427 34.7828Z" fill="white"/>
</svg>
