<svg width="70" height="50" viewBox="0 0 70 50" fill="none" xmlns="http://www.w3.org/2000/svg">
<rect width="70" height="50" rx="4" fill="#016FD0"/>
<path fill-rule="evenodd" clip-rule="evenodd" d="M13.5976 37.2321V26.3492H25.1819L26.4247 27.9608L27.7087 26.3492H69.7567V36.4816C69.7567 36.4816 68.657 37.2212 67.3853 37.2321H44.1024L42.7012 35.5166V37.2321H38.1093V34.3036C38.1093 34.3036 37.482 34.7124 36.1259 34.7124H34.563V37.2321H27.6104L26.3694 35.5859L25.1092 37.2321H13.5976Z" fill="white"/>
<path fill-rule="evenodd" clip-rule="evenodd" d="M0.0698547 18.1467L2.68215 12.0888H7.19984L8.68235 15.4822V12.0888H14.2983L15.1808 14.5414L16.0364 12.0888H41.246V13.3218C41.246 13.3218 42.5712 12.0888 44.7492 12.0888L52.9288 12.1172L54.3857 15.4662V12.0888H59.0854L60.3789 14.0125V12.0888H65.1217V22.9717H60.3789L59.1393 21.0417V22.9717H52.2344L51.54 21.2562H49.6837L49.0007 22.9717H44.318C42.4439 22.9717 41.246 21.7638 41.246 21.7638V22.9717H34.1857L32.7844 21.2562V22.9717H6.53057L5.83667 21.2562H3.98632L3.29732 22.9717H0.0698547L0.0698547 18.1467Z" fill="white"/>
<path fill-rule="evenodd" clip-rule="evenodd" d="M0.0833435 21.5792L3.60676 13.4304H6.27795L9.798 21.5792H7.45355L6.8068 19.9474H3.02738L2.37727 21.5792H0.0833435ZM6.06237 18.1783L4.91035 15.3269L3.75497 18.1783H6.06237Z" fill="#016FD0"/>
<path fill-rule="evenodd" clip-rule="evenodd" d="M10.0405 21.5778V13.429L13.3003 13.4411L15.1963 18.6949L17.0469 13.429H20.2807V21.5778H18.2326V15.5734L16.0617 21.5778H14.2656L12.0886 15.5734V21.5778H10.0405Z" fill="#016FD0"/>
<path fill-rule="evenodd" clip-rule="evenodd" d="M21.6819 21.5778V13.429H28.365V15.2518H23.7515V16.6457H28.2572V18.3612H23.7515V19.8087H28.365V21.5778H21.6819Z" fill="#016FD0"/>
<path fill-rule="evenodd" clip-rule="evenodd" d="M29.5507 21.5792V13.4304H34.1082C35.6183 13.4304 36.9714 14.3593 36.9714 16.0741C36.9714 17.54 35.8306 18.4842 34.7246 18.577L37.4194 21.5792H34.9166L32.461 18.6842H31.5987V21.5792H29.5507ZM33.9398 15.2532H31.5987V16.9687H33.9701C34.3806 16.9687 34.9099 16.6523 34.9099 16.1109C34.9099 15.6901 34.5014 15.2532 33.9398 15.2532Z" fill="#016FD0"/>
<path fill-rule="evenodd" clip-rule="evenodd" d="M39.8986 21.5778H37.8074V13.429H39.8986V21.5778Z" fill="#016FD0"/>
<path fill-rule="evenodd" clip-rule="evenodd" d="M44.857 21.5778H44.4056C42.2216 21.5778 40.8957 19.8663 40.8957 17.5369C40.8957 15.15 42.2068 13.429 44.9648 13.429H47.2284V15.359H44.882C43.7624 15.359 42.9706 16.2281 42.9706 17.557C42.9706 19.1351 43.876 19.798 45.1803 19.798H45.7193L44.857 21.5778Z" fill="#016FD0"/>
<path fill-rule="evenodd" clip-rule="evenodd" d="M45.79 21.5792L49.3135 13.4304H51.9846L55.5047 21.5792H53.1602L52.5135 19.9474H48.7341L48.084 21.5792H45.79ZM51.7691 18.1783L50.617 15.3269L49.4617 18.1783H51.7691Z" fill="#016FD0"/>
<path fill-rule="evenodd" clip-rule="evenodd" d="M55.7439 21.5778V13.429H58.3477L61.6723 18.5488V13.429H63.7204V21.5778H61.2008L57.7919 16.324V21.5778H55.7439Z" fill="#016FD0"/>
<path fill-rule="evenodd" clip-rule="evenodd" d="M14.9989 35.8382V27.6894H21.6819V29.5122H17.0685V30.9061H21.5741V32.6216H17.0685V34.0691H21.6819V35.8382H14.9989Z" fill="#016FD0"/>
<path fill-rule="evenodd" clip-rule="evenodd" d="M47.7458 35.8382V27.6894H54.4288V29.5122H49.8153V30.9061H54.2994V32.6216H49.8153V34.0691H54.4288V35.8382H47.7458Z" fill="#016FD0"/>
<path fill-rule="evenodd" clip-rule="evenodd" d="M21.9413 35.8382L25.1952 31.8141L21.8638 27.6894H24.4441L26.4281 30.2393L28.4189 27.6894H30.8981L27.6104 31.7638L30.8704 35.8382H28.2905L26.3641 33.3286L24.4845 35.8382H21.9413Z" fill="#016FD0"/>
<path fill-rule="evenodd" clip-rule="evenodd" d="M31.1136 35.8396V27.6908H35.6375C37.4937 27.6908 38.5782 28.8808 38.5782 30.4316C38.5782 32.3037 37.1955 33.2663 35.3714 33.2663H33.2156V35.8396H31.1136ZM35.4859 29.5337H33.2156V31.41H35.4792C36.0773 31.41 36.4965 31.0157 36.4965 30.4718C36.4965 29.8929 36.0752 29.5337 35.4859 29.5337Z" fill="#016FD0"/>
<path fill-rule="evenodd" clip-rule="evenodd" d="M39.4674 35.8382V27.6894H44.025C45.5351 27.6894 46.8882 28.6183 46.8882 30.3331C46.8882 31.799 45.7473 32.7432 44.6414 32.836L47.3362 35.8382H44.8334L42.3778 32.9433H41.5154V35.8382H39.4674ZM43.8565 29.5122H41.5154V31.2277H43.8868C44.2973 31.2277 44.8266 30.9113 44.8266 30.3699C44.8266 29.9492 44.4181 29.5122 43.8565 29.5122Z" fill="#016FD0"/>
<path fill-rule="evenodd" clip-rule="evenodd" d="M55.3774 35.8382V34.0691H59.4761C60.0826 34.0691 60.3452 33.7431 60.3452 33.3855C60.3452 33.043 60.0834 32.6967 59.4761 32.6967H57.6239C56.0139 32.6967 55.1173 31.7209 55.1173 30.256C55.1173 28.9494 55.9384 27.6894 58.3308 27.6894H62.3191L61.4568 29.5229H58.0075C57.3481 29.5229 57.1451 29.8671 57.1451 30.1957C57.1451 30.5335 57.3959 30.9061 57.8997 30.9061H59.8399C61.6346 30.9061 62.4134 31.9187 62.4134 33.2448C62.4134 34.6705 61.5456 35.8382 59.7422 35.8382H55.3774Z" fill="#016FD0"/>
<path fill-rule="evenodd" clip-rule="evenodd" d="M62.8941 35.8382V34.0691H66.9928C67.5993 34.0691 67.8619 33.7431 67.8619 33.3855C67.8619 33.043 67.6001 32.6967 66.9928 32.6967H65.1407C63.5307 32.6967 62.634 31.7209 62.634 30.256C62.634 28.9494 63.4551 27.6894 65.8476 27.6894H69.8358L68.9735 29.5229H65.5242C64.8648 29.5229 64.6619 29.8671 64.6619 30.1957C64.6619 30.5335 64.9127 30.9061 65.4164 30.9061H67.3566C69.1514 30.9061 69.9301 31.9187 69.9301 33.2448C69.9301 34.6705 69.0623 35.8382 67.2589 35.8382H62.8941Z" fill="#016FD0"/>
</svg>
