<svg width="70" height="50" viewBox="0 0 70 50" fill="none" xmlns="http://www.w3.org/2000/svg">
<rect width="70" height="50" rx="4" fill="white"/>
<path fill-rule="evenodd" clip-rule="evenodd" d="M11.3519 29.6905L13.7275 32.6324H7.84596L11.3519 29.6905ZM10.6049 28.7818L6.00403 32.6414L6.00214 23.1492L10.6049 28.7818ZM21.675 19.2238C21.675 19.2238 20.6649 18.7457 19.4916 18.8155C18.1501 18.8945 17.0279 19.4089 16.3827 20.0878C15.9767 20.5142 15.528 21.0345 15.3025 21.5995C14.9756 22.4169 14.9058 23.4969 14.9058 23.4969C14.9058 23.4969 14.4366 23.0987 13.8488 21.9383C13.1654 20.5887 12.9784 19.7712 12.8858 18.8385C12.8034 18.02 12.9328 17.2107 12.9328 17.2107H21.675V19.2238ZM21.675 21.9148V27.8999C21.675 27.8999 21.1315 28.1086 20.6882 28.1086C20.2448 28.1086 19.4899 28.0429 18.6131 27.5608C17.7426 27.0827 17.2608 26.5042 16.8873 25.98C16.5085 25.4469 16.1958 24.7078 16.1028 24.1751C16.0281 23.749 15.9475 22.6863 16.3827 21.8225C16.6189 21.3537 17.2527 20.5502 18.4731 20.5045C19.4678 20.4663 20.0194 20.7278 20.525 21.0053C21.4871 21.5343 21.675 21.9148 21.675 21.9148ZM12.1557 27.4796L13.7326 26.1652C13.2301 25.5232 13.0973 25.2814 12.5355 24.4526C11.9603 23.6043 11.4785 22.6711 11.0665 21.5761C10.6205 20.3899 10.5128 19.724 10.5621 18.8385C10.6238 17.7119 10.8799 17.2107 10.8799 17.2107H5.99988L6.00214 19.8408C6.00214 19.8408 9.73769 24.5222 12.1557 27.4796ZM16.6613 32.6281H21.675V28.9724C21.675 28.9724 20.4314 29.5428 19.6231 29.5889C19.1418 29.617 18.6747 29.6355 17.9211 29.435C17.0833 29.2124 16.6074 28.9954 15.8309 28.355C15.2073 27.8413 14.4942 27.0827 14.4942 27.0827L12.9081 28.4052C13.644 29.3053 14.1874 29.9605 14.3538 30.1369C15.0692 30.8928 15.3723 31.1706 15.8541 31.44C16.3357 31.71 17.9449 31.6954 17.9449 31.6954L16.6613 32.6281Z" fill="#E94E0F"/>
<path fill-rule="evenodd" clip-rule="evenodd" d="M59.5928 29.3763C59.5928 30.4355 59.7356 32.1766 58.5494 32.6004V32.671H63.0547V32.6004C61.8692 32.1534 62.0115 30.4355 62.0115 29.3763V20.5049C62.0115 19.4463 61.8692 17.7048 63.0547 17.2578V17.1872H58.5494V17.2578C59.7589 17.7048 59.5928 19.4227 59.5928 20.5049V29.3763ZM43.073 20.5049L51.2064 30.7414C52.2495 32.0824 52.985 32.8593 54.6685 33.4238V20.2226C54.6685 18.905 54.6685 17.9636 55.9018 17.2578V17.1872H51.728V17.2578C52.985 17.9636 52.9608 18.905 52.9608 20.2226V29.1411L44.2826 18.2695L43.9502 17.7988C43.7846 17.6107 43.6899 17.4931 43.595 17.2108V17.1872H40.1324V17.2578C41.3656 17.9636 41.3656 18.905 41.3656 20.2226V29.6122C41.3656 30.9296 41.3656 31.8707 40.1092 32.6004V32.671H44.3064V32.6004C43.0494 31.8707 43.073 30.9296 43.073 29.6122V20.5049ZM29.8152 23.4232V18.8111L31.4036 18.6459C32.8266 18.5048 34.3439 19.3521 34.3439 20.976C34.3439 22.9055 32.1386 23.4232 30.5977 23.4232H29.8152ZM29.8152 30.7884V24.9759L31.4747 24.8819C33.5615 24.7642 35.7904 25.7528 35.7904 28.0353C35.7904 30.2708 33.8228 31.1649 31.8779 30.9767L29.8152 30.7884ZM27.3962 29.3529C27.3962 30.4355 27.5387 32.1534 26.3527 32.6004V32.671H30.2653C32.0437 32.671 33.9175 32.7418 35.577 31.9416C37.1658 31.1885 38.4227 29.6352 38.4227 27.8232C38.4227 25.5175 36.6913 24.1054 34.5572 23.6579C35.909 23.0699 36.9283 22.1758 36.9283 20.5991C36.9283 18.5048 35.103 17.1872 31.9731 17.1872H26.3527V17.2578C27.5626 17.7048 27.3962 19.4227 27.3962 20.4813V29.3529Z" fill="#005B6A"/>
</svg>
