<svg width="70" height="50" viewBox="0 0 70 50" fill="none" xmlns="http://www.w3.org/2000/svg">
<rect width="70" height="50" rx="4" fill="#00529C"/>
<path fill-rule="evenodd" clip-rule="evenodd" d="M20.7512 21.691H24.0875C25.4385 21.691 26.4457 22.2887 26.4457 23.5471C26.4457 24.4698 25.9788 24.9836 25.1678 25.2559V25.2766C26.1345 25.4764 26.6333 26.0008 26.6333 26.8915C26.6333 28.643 25.1051 29.0097 23.8063 29.0097H20.7512V21.691ZM22.6837 24.585H23.2246C23.8585 24.585 24.5136 24.4277 24.5136 23.8085C24.5136 23.1383 23.8898 23.0748 23.2448 23.0748H22.6837V24.585ZM22.6837 27.6259H23.2562C23.9623 27.6259 24.6999 27.5209 24.6999 26.7763C24.6999 25.98 23.9417 25.906 23.2765 25.906H22.6837V27.6259Z" fill="white"/>
<path fill-rule="evenodd" clip-rule="evenodd" d="M29.1703 21.691H31.5399L34.3356 29.0097H32.2153L31.6753 27.4478H28.9524L28.3805 29.0097H26.4164L29.1703 21.691ZM30.3556 23.2012H30.3338L29.399 26.064H31.2176L30.3556 23.2012Z" fill="white"/>
<path fill-rule="evenodd" clip-rule="evenodd" d="M34.6047 21.691H37.0677L39.5205 26.6614H39.5407L39.51 21.691H41.2773V29.0097H38.8764L36.3398 24.0083H36.3199L36.3819 29.0097H34.6047V21.691Z" fill="white"/>
<path fill-rule="evenodd" clip-rule="evenodd" d="M41.9333 21.691H43.8661V24.6801H43.887L46.0687 21.691H48.3975L45.7157 25.0985L48.6053 29.0097H46.1414L43.887 25.6861H43.8661V29.0097H41.9333V21.691Z" fill="white"/>
<path fill-rule="evenodd" clip-rule="evenodd" d="M51.0018 21.691H54.3381C55.6888 21.691 56.6973 22.2887 56.6973 23.5471C56.6973 24.4698 56.2304 24.9836 55.4193 25.2559V25.2766C56.3857 25.4764 56.8846 26.0008 56.8846 26.8915C56.8846 28.643 55.3567 29.0097 54.0582 29.0097H51.0018V21.691ZM52.9352 24.585H53.4752C54.1094 24.585 54.7636 24.4277 54.7636 23.8085C54.7636 23.1383 54.1407 23.0748 53.4967 23.0748H52.9352V24.585ZM52.9352 27.6259H53.5071C54.2132 27.6259 54.9515 27.5209 54.9515 26.7763C54.9515 25.98 54.1929 25.906 53.5277 25.906H52.9352V27.6259Z" fill="white"/>
<path fill-rule="evenodd" clip-rule="evenodd" d="M57.3129 21.691H60.7634C62.0518 21.691 63.102 22.2779 63.102 23.5369C63.102 24.5119 62.6446 25.162 61.7095 25.3819V25.4027C62.3317 25.5709 62.3741 26.1262 62.7379 27.0176L63.4449 29.0097H61.4289L61.0129 27.6894C60.6178 26.431 60.3683 26.1157 59.6512 26.1157H59.2456V29.0097H57.3129V21.691ZM59.2456 24.7318H59.7552C60.3787 24.7318 61.1689 24.7104 61.1689 23.8823C61.1689 23.2012 60.4926 23.0748 59.7552 23.0748H59.2456V24.7318Z" fill="white"/>
<mask id="mask0_508_1638" style="mask-type:alpha" maskUnits="userSpaceOnUse" x="4" y="18" width="62" height="15">
<path fill-rule="evenodd" clip-rule="evenodd" d="M4 32.7058H65.9102V18.0001H4V32.7058Z" fill="white"/>
</mask>
<g mask="url(#mask0_508_1638)">
<path fill-rule="evenodd" clip-rule="evenodd" d="M63.9774 29.0098H65.9102V21.691H63.9774V29.0098Z" fill="white"/>
<path fill-rule="evenodd" clip-rule="evenodd" d="M16.3401 18H6.22334C4.99536 18 3.99988 19.0293 3.99988 20.2991V20.3234V30.4072C3.99988 31.6647 4.97701 32.6869 6.18917 32.7057H16.3347C17.563 32.7057 18.5588 31.6765 18.5588 30.4072L18.5636 20.2991C18.5636 19.0293 17.5684 18 16.3401 18ZM7.42601 31.5274L6.87402 31.5335C6.20594 31.5335 5.66439 30.9798 5.66439 30.2965L5.66122 30.1991V20.864L5.6647 20.3614C5.68969 19.7001 6.18759 19.1678 6.83986 19.1678H7.96187C8.97854 19.1678 9.8032 20.0598 9.8032 21.1123C9.8032 21.6326 9.60107 22.1049 9.27367 22.4483L6.41092 25.379L9.094 28.1355C9.44006 28.4952 9.64915 28.9682 9.64915 29.4862C9.64915 30.6137 8.65367 31.5274 7.42601 31.5274ZM15.6745 31.5182L10.6722 31.516C10.6722 31.516 11.2507 30.2547 11.2507 29.474C11.2507 28.5223 10.935 27.6718 10.4412 27.1091L8.73023 25.3494L10.4767 23.5289C10.9964 23.0359 11.3418 22.1607 11.3418 21.164C11.3418 20.3748 11.1254 19.6755 10.7772 19.1678H11.9893C13.0063 19.1678 13.831 20.0598 13.831 21.1123C13.831 21.6326 13.6292 22.1049 13.3018 22.4483L10.4937 25.3484L16.3259 31.3487C16.1411 31.4662 15.908 31.5182 15.6745 31.5182ZM16.8962 29.6448L12.7166 25.3471L14.7072 23.3059C15.1127 22.7949 15.3696 22.0248 15.3696 21.164C15.3696 20.3697 15.1501 19.6535 14.7986 19.1454L15.6897 19.1722C16.3578 19.1722 16.8994 19.7269 16.8994 20.4099L16.8962 29.6448Z" fill="white"/>
</g>
</svg>
