<svg width="70" height="50" viewBox="0 0 70 50" fill="none" xmlns="http://www.w3.org/2000/svg">
<rect width="70" height="50" rx="4" fill="white"/>
<g clip-path="url(#clip0_508_1639)">
<path d="M18.5631 17.032C17.8708 16.892 17.1507 17.2202 16.7862 17.8413C16.7001 17.9884 16.6381 18.1467 16.5989 18.3094C16.4381 17.6759 15.9325 17.1622 15.2903 17.032C14.598 16.892 13.8772 17.2202 13.5127 17.8413C13.4267 17.9884 13.3646 18.1467 13.3254 18.3094C13.164 17.6766 12.6591 17.1622 12.0168 17.032C11.3245 16.892 10.6037 17.2202 10.2393 17.8413C9.8735 18.465 9.93171 19.2828 10.3823 19.8447C10.8322 20.4059 11.5947 20.624 12.261 20.3773C12.792 20.1807 13.1881 19.7158 13.326 19.1663C13.3855 19.4111 13.495 19.6442 13.6557 19.8447C14.1056 20.4059 14.8682 20.624 15.5345 20.3773C16.0654 20.1807 16.4615 19.7158 16.5995 19.1663C16.659 19.4111 16.7685 19.6442 16.9292 19.8447C17.3791 20.4059 18.1416 20.624 18.808 20.3773C19.4718 20.1312 19.9268 19.4651 19.9268 18.7392C19.9261 17.9194 19.3458 17.1909 18.5631 17.032Z" fill="#FDAF27"/>
<path d="M13.162 25.4839C13.3341 26.2411 13.7726 26.9475 14.5402 27.1637C15.2692 27.3688 16.0817 27.0361 16.457 26.357C16.6822 25.9494 16.6537 25.4885 16.6519 25.0373C16.6506 24.7332 16.6487 24.4298 16.6493 24.1257C16.6493 23.7911 16.6493 23.4564 16.6512 23.1224C16.6531 22.694 16.6411 22.278 16.8487 21.8893C17.1353 21.3515 17.7055 21.0207 18.3009 21.0448C18.9021 21.0696 19.4501 21.4576 19.6893 22.026C19.8481 22.4036 19.8209 22.8132 19.8222 23.2149C19.8235 23.5463 19.8235 23.8783 19.8235 24.2097C19.8235 24.9259 19.8671 25.6727 19.7317 26.3778C19.4185 28.0101 18.3193 29.4308 16.8297 30.0851C15.3401 30.7395 13.5758 30.5643 12.233 29.6333C11.5711 29.1742 11.0257 28.5395 10.6662 27.8057C10.3112 27.0797 10.0961 26.1728 10.2321 25.3602C10.334 24.7547 10.7991 24.2599 11.3845 24.1362C11.9926 24.0079 12.6292 24.297 12.9462 24.8458C13.0614 25.0444 13.1114 25.2606 13.162 25.4839Z" fill="#FDAF27"/>
<path d="M60.0001 25.3713C60.0001 27.5889 58.2338 29.3592 56.0038 29.3592C53.7892 29.3592 52.053 27.6038 52.053 25.3713C52.053 23.1387 53.7892 21.3984 56.0184 21.3984C58.2346 21.3984 60.0001 23.1537 60.0001 25.3713ZM54.1038 25.3862C54.1038 26.5875 54.9117 27.4495 56.0192 27.4495C57.1121 27.4495 57.9346 26.5719 57.9346 25.3862C57.9346 24.185 57.1113 23.2924 56.0192 23.2924C54.9117 23.2924 54.1038 24.17 54.1038 25.3862Z" fill="black"/>
<path d="M28.0343 26.8707C28.4102 27.0927 28.7715 27.32 29.222 27.2926C29.6536 27.2666 30.0478 27.0341 30.2934 26.6689C30.5218 26.3297 30.5167 25.9422 30.5167 25.5496C30.5167 24.8869 30.5167 20.3481 30.5167 20.018C30.5167 19.7895 30.5047 19.5636 30.5902 19.3455C30.8439 18.6989 31.6659 18.4906 32.1823 18.9431C32.4588 19.1853 32.5373 19.518 32.5373 19.8728C32.5373 20.5871 32.5575 25.5314 32.5322 26.0217C32.4867 26.9065 32.0956 27.7633 31.4811 28.3812C30.8445 29.0219 29.9719 29.3741 29.0841 29.3735C28.2317 29.3728 27.3312 29.0362 26.7731 28.3513C26.5491 28.0759 26.4187 27.7503 26.5067 27.3896C26.5915 27.0419 26.8642 26.7639 27.2041 26.6819C27.5129 26.609 27.7723 26.7157 28.0343 26.8707Z" fill="black"/>
<path d="M42.0344 27.5086L42.0356 27.508C41.7256 27.3146 41.5338 26.9709 41.5282 26.5978V22.438C41.5282 21.8638 41.0757 21.3989 40.5176 21.3989C40.0063 21.3989 39.5854 21.7895 39.5177 22.2967C39.0077 21.7309 38.2357 21.3989 37.3093 21.3989C35.2293 21.3989 33.7175 23.0774 33.7175 25.3868C33.7175 27.6968 35.2293 29.3746 37.3093 29.3746C37.3188 29.3746 37.3283 29.374 37.3378 29.374C37.3473 29.374 37.3567 29.3746 37.3662 29.3746C38.3642 29.3746 39.2298 28.9879 39.8614 28.331C40.1841 28.8473 40.7049 29.2256 41.3275 29.3415C41.3883 29.3525 41.449 29.3584 41.5085 29.3584C41.5123 29.3584 41.5161 29.3577 41.5193 29.3571C41.5237 29.3571 41.5288 29.3577 41.5332 29.3577C42.0685 29.3577 42.502 28.9118 42.502 28.3609C42.5026 27.9989 42.3147 27.6832 42.0344 27.5086ZM37.6839 27.4807C36.5613 27.4807 35.7684 26.603 35.7684 25.3868C35.7684 24.1699 36.5765 23.2773 37.6839 23.2773C38.7913 23.2773 39.5544 24.1393 39.5544 25.3868C39.5544 26.6336 38.8059 27.4807 37.6839 27.4807Z" fill="black"/>
<path d="M50.9511 22.4453C50.9511 21.845 50.5322 21.3984 49.9633 21.3984C49.4394 21.3984 49.0204 21.7988 48.9755 22.3528C48.4667 21.7526 47.6732 21.3984 46.7158 21.3984C44.6358 21.3984 43.124 23.0769 43.124 25.3863C43.124 27.6956 44.6358 29.3742 46.7158 29.3742C47.6498 29.3742 48.4218 29.0415 48.9306 28.4515V28.699C48.9236 29.9419 48.1738 30.7753 47.06 30.7753C46.5829 30.7753 46.1539 30.619 45.8197 30.3241C45.6951 30.2141 45.585 30.0851 45.4919 29.9412C45.1831 29.4634 44.5561 29.3338 44.0916 29.6515C43.6271 29.9692 43.5012 30.6145 43.81 31.0924C44.0055 31.3945 44.239 31.6666 44.5042 31.901C45.2097 32.5247 46.0937 32.8542 47.0607 32.8542C49.29 32.8542 50.9138 31.1379 50.9498 28.7622L50.9517 28.3122C50.9517 28.3122 50.9517 28.3122 50.9517 28.3116V22.4453H50.9511ZM47.0904 27.4808C45.9678 27.4808 45.1749 26.6031 45.1749 25.3869C45.1749 24.1707 45.983 23.2774 47.0904 23.2774C48.1978 23.2774 48.9609 24.1394 48.9609 25.3869C48.9609 26.6337 48.2124 27.4808 47.0904 27.4808Z" fill="black"/>
</g>
<defs>
<clipPath id="clip0_508_1639">
<rect width="50" height="16" fill="white" transform="translate(10 17)"/>
</clipPath>
</defs>
</svg>
